<svg xmlns="http://www.w3.org/2000/svg" xmlns:xlink="http://www.w3.org/1999/xlink" width="1728" zoomAndPan="magnify" viewBox="0 0 1296 1727.999927" height="2304" preserveAspectRatio="xMidYMid meet" version="1.0"><defs><g/><clipPath id="a0210de483"><path d="M 0 1225.207031 L 1296 1225.207031 L 1296 1728 L 0 1728 Z M 0 1225.207031 " clip-rule="nonzero"/></clipPath><clipPath id="3ccaf7b6cc"><path d="M 0 0 L 1296 0 L 1296 644.445312 L 0 644.445312 Z M 0 0 " clip-rule="nonzero"/></clipPath><clipPath id="8d37e83865"><path d="M 151.554688 552.4375 L 1128.804688 552.4375 L 1128.804688 1240.1875 L 151.554688 1240.1875 Z M 151.554688 552.4375 " clip-rule="nonzero"/></clipPath><clipPath id="6b0e323ec6"><path d="M 701.300781 241 L 1296 241 L 1296 864 L 701.300781 864 Z M 701.300781 241 " clip-rule="nonzero"/></clipPath><clipPath id="9b3df5a3c9"><path d="M 1012.816406 863.554688 C 841.351562 863.554688 701.742188 723.949219 701.742188 552.390625 C 701.742188 380.835938 841.351562 241.316406 1012.816406 241.316406 C 1184.285156 241.316406 1323.984375 380.921875 1323.984375 552.390625 C 1323.984375 723.859375 1184.375 863.554688 1012.816406 863.554688 Z M 1012.816406 242.648438 C 842.058594 242.648438 703.074219 381.632812 703.074219 552.390625 C 703.074219 723.152344 842.058594 862.136719 1012.816406 862.136719 C 1183.578125 862.136719 1322.5625 723.152344 1322.5625 552.390625 C 1322.5625 381.632812 1183.664062 242.648438 1012.816406 242.648438 Z M 1012.816406 242.648438 " clip-rule="nonzero"/></clipPath><clipPath id="7ef6678c8e"><path d="M 712 251.507812 L 1296 251.507812 L 1296 853.363281 L 712 853.363281 Z M 712 251.507812 " clip-rule="nonzero"/></clipPath><clipPath id="4e43db7e64"><path d="M 1313.511719 552.390625 C 1313.511719 718.445312 1178.875 853.082031 1012.816406 853.082031 C 846.761719 853.082031 712.125 718.535156 712.125 552.390625 C 712.125 386.25 846.761719 251.699219 1012.816406 251.699219 C 1178.875 251.699219 1313.511719 386.335938 1313.511719 552.390625 Z M 1313.511719 552.390625 " clip-rule="nonzero"/></clipPath></defs><rect x="-129.6" width="1555.2" fill="#ffffff" y="-172.799993" height="2073.599912" fill-opacity="1"/><rect x="-129.6" width="1555.2" fill="#545631" y="-172.799993" height="2073.599912" fill-opacity="1"/><path fill="#ebeae6" d="M -11.964844 1423.792969 L 281.488281 1673.042969 L -11.964844 1752.855469 Z M -11.964844 1423.792969 " fill-opacity="1" fill-rule="evenodd"/><path fill="#ebeae6" d="M 1307.964844 1426.25 L 1005.300781 1683.480469 L 1307.964844 1765.746094 Z M 1307.964844 1426.25 " fill-opacity="1" fill-rule="evenodd"/><g clip-path="url(#a0210de483)"><path fill="#545631" d="M -11.964844 1887.304688 L 1307.964844 1225.496094 L 1307.964844 1935.800781 L -11.964844 1935.800781 Z M -11.964844 1887.304688 " fill-opacity="1" fill-rule="evenodd"/></g><path fill="#81844e" d="M 946.980469 1935.800781 L 1187.023438 1557.628906 L 2.769531 1935.800781 L -11.964844 1935.800781 L -11.964844 1735.664062 L 1307.964844 1311.445312 L 1307.964844 1935.800781 Z M 946.980469 1935.800781 " fill-opacity="1" fill-rule="evenodd"/><path fill="#545631" d="M -11.964844 1654.628906 L 240.96875 1935.800781 L -11.964844 1935.800781 Z M -11.964844 1654.628906 " fill-opacity="1" fill-rule="evenodd"/><path fill="#545631" d="M 1307.964844 1432.386719 L 987.496094 1935.800781 L 1307.964844 1935.800781 Z M 1307.964844 1432.386719 " fill-opacity="1" fill-rule="evenodd"/><path fill="#ebeae6" d="M 1307.964844 352.683594 L 876.730469 -13.59375 L 1307.964844 -130.875 Z M 1307.964844 352.683594 " fill-opacity="1" fill-rule="evenodd"/><g clip-path="url(#3ccaf7b6cc)"><path fill="#545631" d="M 1307.964844 -328.449219 L -631.675781 644.078125 L -631.675781 -399.71875 L 1307.964844 -399.71875 Z M 1307.964844 -328.449219 " fill-opacity="1" fill-rule="evenodd"/></g><path fill="#52542e" d="M -101.207031 -399.71875 L -453.953125 156.011719 L 1286.3125 -399.71875 L 1307.964844 -399.71875 L 1307.964844 -105.613281 L -631.675781 517.777344 L -631.675781 -399.71875 Z M -101.207031 -399.71875 " fill-opacity="1" fill-rule="evenodd"/><path fill="#545631" d="M 1307.964844 13.46875 L 936.273438 -399.71875 L 1307.964844 -399.71875 Z M 1307.964844 13.46875 " fill-opacity="1" fill-rule="evenodd"/><g clip-path="url(#8d37e83865)"><path fill="#f5c0cb" d="M 151.554688 552.4375 L 1128.804688 552.4375 L 1128.804688 1240.1875 L 151.554688 1240.1875 Z M 151.554688 552.4375 " fill-opacity="1" fill-rule="nonzero"/></g><g clip-path="url(#6b0e323ec6)"><g clip-path="url(#9b3df5a3c9)"><path fill="#ebeae6" d="M 701.300781 240.871094 L 1324.425781 240.871094 L 1324.425781 864 L 701.300781 864 Z M 701.300781 240.871094 " fill-opacity="1" fill-rule="nonzero"/></g></g><g clip-path="url(#7ef6678c8e)"><g clip-path="url(#4e43db7e64)"><path fill="#fbe3e7" d="M 701.300781 240.871094 L 1324.425781 240.871094 L 1324.425781 864 L 701.300781 864 Z M 701.300781 240.871094 " fill-opacity="1" fill-rule="nonzero"/></g></g><g fill="#000000" fill-opacity="1"><g transform="translate(229.284282, 843.548785)"><g><path d="M 41.609375 0 L 54.40625 0 L 54.40625 -56.335938 L 41.609375 -56.335938 L 41.609375 -34.6875 L 19.558594 -34.6875 L 19.558594 -56.335938 L 6.761719 -56.335938 L 6.761719 0 L 19.558594 0 L 19.558594 -22.695312 L 41.609375 -22.695312 Z M 41.609375 0 "/></g></g></g><g fill="#000000" fill-opacity="1"><g transform="translate(290.44354, 843.548785)"><g><path d="M 33.480469 1.125 C 51.105469 1.125 63.582031 -10.945312 63.582031 -28.167969 C 63.582031 -45.390625 51.105469 -57.464844 33.480469 -57.464844 C 15.855469 -57.464844 3.460938 -45.390625 3.460938 -28.167969 C 3.460938 -10.945312 15.855469 1.125 33.480469 1.125 Z M 16.5 -28.167969 C 16.5 -38.308594 23.5 -45.3125 33.480469 -45.3125 C 43.542969 -45.3125 50.460938 -38.308594 50.460938 -28.167969 C 50.460938 -18.027344 43.542969 -11.027344 33.480469 -11.027344 C 23.5 -11.027344 16.5 -18.027344 16.5 -28.167969 Z M 16.5 -28.167969 "/></g></g></g><g fill="#000000" fill-opacity="1"><g transform="translate(357.477303, 843.548785)"><g><path d="M 6.761719 0 L 19.476562 0 L 19.476562 -33.964844 L 33.160156 -13.921875 L 42.011719 -13.921875 L 55.695312 -33.882812 L 55.695312 0 L 68.410156 0 L 68.410156 -56.335938 L 57.625 -56.335938 L 37.664062 -27.121094 L 17.625 -56.335938 L 6.761719 -56.335938 Z M 6.761719 0 "/></g></g></g><g fill="#000000" fill-opacity="1"><g transform="translate(432.638818, 843.548785)"><g><path d="M 6.761719 0 L 44.667969 0 L 44.667969 -10.863281 L 19.476562 -10.863281 L 19.476562 -23.179688 L 41.609375 -23.179688 L 41.609375 -33.882812 L 19.476562 -33.882812 L 19.476562 -45.554688 L 43.78125 -45.554688 L 43.78125 -56.335938 L 6.761719 -56.335938 Z M 6.761719 0 "/></g></g></g><g fill="#000000" fill-opacity="1"><g transform="translate(481.405271, 843.548785)"><g/></g></g><g fill="#000000" fill-opacity="1"><g transform="translate(500.316357, 843.548785)"><g><path d="M 23.902344 1.125 C 30.179688 1.125 35.652344 -0.484375 40.082031 -3.300781 L 43.300781 0 L 56.820312 0 L 47.242188 -10.058594 C 50.460938 -14.648438 52.3125 -20.441406 52.472656 -27.121094 L 41.929688 -27.121094 C 41.851562 -23.660156 41.046875 -20.523438 39.679688 -17.867188 L 31.46875 -26.480469 C 39.597656 -30.179688 43.863281 -35.734375 43.863281 -42.574219 C 43.863281 -51.507812 36.539062 -57.464844 25.511719 -57.464844 C 14.648438 -57.464844 7.40625 -51.75 7.40625 -43.300781 C 7.40625 -38.871094 9.417969 -34.929688 13.683594 -30.019531 C 6.679688 -26.316406 3.058594 -21.167969 3.058594 -14.566406 C 3.058594 -4.910156 11.105469 1.125 23.902344 1.125 Z M 15.050781 -15.371094 C 15.050781 -18.351562 16.820312 -20.683594 20.765625 -22.535156 L 32.355469 -10.703125 C 30.019531 -9.578125 27.285156 -8.933594 24.304688 -8.933594 C 18.429688 -8.933594 15.050781 -11.347656 15.050781 -15.371094 Z M 18.914062 -42.574219 C 18.914062 -45.632812 21.410156 -47.484375 25.433594 -47.484375 C 29.699219 -47.484375 32.355469 -45.472656 32.355469 -42.09375 C 32.355469 -38.792969 29.859375 -36.136719 24.304688 -34.042969 C 20.121094 -38.46875 18.914062 -40.484375 18.914062 -42.574219 Z M 18.914062 -42.574219 "/></g></g></g><path fill="#ebeae6" d="M 494.96875 1441.425781 L 801.015625 1441.425781 C 814.832031 1441.425781 826.035156 1452.628906 826.035156 1466.445312 L 826.035156 1516.488281 C 826.035156 1530.304688 814.832031 1541.507812 801.015625 1541.507812 L 494.96875 1541.507812 C 488.332031 1541.507812 481.96875 1538.871094 477.277344 1534.179688 C 472.582031 1529.488281 469.949219 1523.125 469.949219 1516.488281 L 469.949219 1466.445312 C 469.949219 1452.628906 481.148438 1441.425781 494.96875 1441.425781 Z M 494.96875 1441.425781 " fill-opacity="1" fill-rule="nonzero"/><g fill="#545631" fill-opacity="1"><g transform="translate(491.520692, 1509.939705)"><g><path d="M 18.066406 0.699219 C 26.320312 0.699219 31.660156 -3.34375 31.660156 -9.921875 C 31.660156 -15.480469 27.9375 -18.824219 18.28125 -21.195312 C 10.949219 -22.976562 8.519531 -24.917969 8.519531 -28.046875 C 8.519531 -31.660156 11.757812 -33.921875 17.152344 -33.921875 C 22.707031 -33.921875 26.15625 -31.121094 26.265625 -26.589844 L 30.957031 -26.589844 C 30.902344 -33.921875 25.617188 -38.453125 17.152344 -38.453125 C 8.898438 -38.453125 3.667969 -34.410156 3.667969 -28.046875 C 3.667969 -22.21875 7.820312 -18.984375 17.097656 -16.773438 C 23.890625 -15.15625 26.75 -13.265625 26.75 -9.761719 C 26.75 -6.039062 23.40625 -3.828125 18.066406 -3.828125 C 12.1875 -3.828125 8.089844 -6.742188 7.980469 -11.59375 L 3.234375 -11.59375 C 3.289062 -4.207031 9.0625 0.699219 18.066406 0.699219 Z M 18.066406 0.699219 "/></g></g></g><g fill="#545631" fill-opacity="1"><g transform="translate(526.411337, 1509.939705)"><g><path d="M 30.257812 0 L 35.003906 0 L 35.003906 -37.753906 L 30.257812 -37.753906 L 30.257812 -21.519531 L 10.246094 -21.519531 L 10.246094 -37.753906 L 5.5 -37.753906 L 5.5 0 L 10.246094 0 L 10.246094 -16.988281 L 30.257812 -16.988281 Z M 30.257812 0 "/></g></g></g><g fill="#545631" fill-opacity="1"><g transform="translate(566.910378, 1509.939705)"><g><path d="M 22.652344 0.699219 C 34.140625 0.699219 42.230469 -7.390625 42.230469 -18.875 C 42.230469 -30.363281 34.140625 -38.453125 22.652344 -38.453125 C 11.164062 -38.453125 3.128906 -30.363281 3.128906 -18.875 C 3.128906 -7.390625 11.164062 0.699219 22.652344 0.699219 Z M 7.980469 -18.875 C 7.980469 -27.667969 13.96875 -33.707031 22.652344 -33.707031 C 31.335938 -33.707031 37.320312 -27.667969 37.320312 -18.875 C 37.320312 -10.085938 31.335938 -4.046875 22.652344 -4.046875 C 13.96875 -4.046875 7.980469 -10.085938 7.980469 -18.875 Z M 7.980469 -18.875 "/></g></g></g><g fill="#545631" fill-opacity="1"><g transform="translate(612.208903, 1509.939705)"><g><path d="M 5.5 0 L 10.246094 0 L 10.246094 -12.40625 L 18.28125 -12.40625 C 26.804688 -12.40625 32.304688 -17.3125 32.304688 -25.078125 C 32.304688 -32.792969 26.804688 -37.753906 18.28125 -37.753906 L 5.5 -37.753906 Z M 10.246094 -16.828125 L 10.246094 -33.222656 L 18.175781 -33.222656 C 24.269531 -33.222656 27.453125 -30.417969 27.453125 -25.023438 C 27.453125 -19.632812 24.269531 -16.828125 18.175781 -16.828125 Z M 10.246094 -16.828125 "/></g></g></g><g fill="#545631" fill-opacity="1"><g transform="translate(646.668132, 1509.939705)"><g/></g></g><g fill="#545631" fill-opacity="1"><g transform="translate(660.04198, 1509.939705)"><g><path d="M 5.5 0 L 10.191406 0 L 10.191406 -29.554688 L 31.066406 0 L 35.488281 0 L 35.488281 -37.753906 L 30.847656 -37.753906 L 30.847656 -8.199219 L 9.976562 -37.753906 L 5.5 -37.753906 Z M 5.5 0 "/></g></g></g><g fill="#545631" fill-opacity="1"><g transform="translate(701.026356, 1509.939705)"><g><path d="M 22.652344 0.699219 C 34.140625 0.699219 42.230469 -7.390625 42.230469 -18.875 C 42.230469 -30.363281 34.140625 -38.453125 22.652344 -38.453125 C 11.164062 -38.453125 3.128906 -30.363281 3.128906 -18.875 C 3.128906 -7.390625 11.164062 0.699219 22.652344 0.699219 Z M 7.980469 -18.875 C 7.980469 -27.667969 13.96875 -33.707031 22.652344 -33.707031 C 31.335938 -33.707031 37.320312 -27.667969 37.320312 -18.875 C 37.320312 -10.085938 31.335938 -4.046875 22.652344 -4.046875 C 13.96875 -4.046875 7.980469 -10.085938 7.980469 -18.875 Z M 7.980469 -18.875 "/></g></g></g><g fill="#545631" fill-opacity="1"><g transform="translate(746.324881, 1509.939705)"><g><path d="M 13.265625 0 L 17.691406 0 L 29.015625 -30.578125 L 35.273438 -13.753906 L 40.394531 0 L 44.816406 0 L 57.113281 -37.753906 L 52.152344 -37.753906 L 42.445312 -7.550781 L 31.28125 -37.753906 L 26.804688 -37.753906 L 15.640625 -7.605469 L 11.21875 -21.464844 L 5.988281 -37.753906 L 1.023438 -37.753906 Z M 13.265625 0 "/></g></g></g><g fill="#000000" fill-opacity="1"><g transform="translate(229.284282, 1007.152752)"><g><path d="M 13.257812 0 L 86.636719 0 L 86.636719 -23.515625 L 38.347656 -23.515625 L 38.347656 -110.46875 L 13.257812 -110.46875 Z M 13.257812 0 "/></g></g></g><g fill="#000000" fill-opacity="1"><g transform="translate(320.177038, 1007.152752)"><g><path d="M 13.257812 0 L 38.347656 0 L 38.347656 -110.46875 L 13.257812 -110.46875 Z M 13.257812 0 "/></g></g></g><g fill="#000000" fill-opacity="1"><g transform="translate(371.777608, 1007.152752)"><g><path d="M 43.871094 0 L 68.488281 0 L 110.941406 -110.46875 L 84.113281 -110.46875 L 56.339844 -36.140625 L 43.082031 -71.171875 L 28.40625 -110.46875 L 1.421875 -110.46875 Z M 43.871094 0 "/></g></g></g><g fill="#000000" fill-opacity="1"><g transform="translate(484.131151, 1007.152752)"><g><path d="M 13.257812 0 L 38.347656 0 L 38.347656 -110.46875 L 13.257812 -110.46875 Z M 13.257812 0 "/></g></g></g><g fill="#000000" fill-opacity="1"><g transform="translate(535.73171, 1007.152752)"><g><path d="M 13.257812 0 L 38.191406 0 L 38.191406 -67.699219 L 86.953125 0 L 108.257812 0 L 108.257812 -110.46875 L 83.324219 -110.46875 L 83.324219 -43.238281 L 34.5625 -110.46875 L 13.257812 -110.46875 Z M 13.257812 0 "/></g></g></g><g fill="#000000" fill-opacity="1"><g transform="translate(657.237653, 1007.152752)"><g><path d="M 64.703125 2.210938 C 101.15625 2.210938 124.671875 -24.777344 122.144531 -62.652344 L 59.808594 -62.652344 L 59.808594 -43.238281 L 95.632812 -43.238281 C 92.476562 -29.828125 81.113281 -20.832031 65.019531 -20.832031 C 44.816406 -20.832031 31.878906 -35.351562 31.878906 -55.234375 C 31.878906 -75.433594 45.292969 -89.636719 64.703125 -89.636719 C 77.011719 -89.636719 87.269531 -83.957031 92.636719 -74.328125 L 119.621094 -74.328125 C 112.992188 -97.527344 91.058594 -112.675781 64.230469 -112.675781 C 30.617188 -112.675781 6.785156 -88.847656 6.785156 -55.234375 C 6.785156 -21.460938 30.773438 2.210938 64.703125 2.210938 Z M 64.703125 2.210938 "/></g></g></g><g fill="#000000" fill-opacity="1"><g transform="translate(343.891669, 1128.382331)"><g><path d="M 35.40625 1.117188 C 50.015625 1.117188 61.875 -7.734375 65.484375 -21.140625 L 57.492188 -21.140625 C 54.398438 -12.117188 45.890625 -6.445312 35.664062 -6.445312 C 22.257812 -6.445312 12.71875 -16.15625 12.71875 -30.078125 C 12.71875 -44 22.257812 -53.710938 35.664062 -53.710938 C 45.632812 -53.710938 53.796875 -48.382812 56.890625 -39.703125 L 64.96875 -39.703125 C 61.015625 -52.9375 49.585938 -61.273438 35.40625 -61.273438 C 17.703125 -61.273438 4.984375 -48.210938 4.984375 -30.078125 C 4.984375 -11.945312 17.703125 1.117188 35.40625 1.117188 Z M 35.40625 1.117188 "/></g></g></g><g fill="#000000" fill-opacity="1"><g transform="translate(414.010136, 1128.382331)"><g><path d="M 36.09375 1.117188 C 54.398438 1.117188 67.289062 -11.773438 67.289062 -30.078125 C 67.289062 -48.382812 54.398438 -61.273438 36.09375 -61.273438 C 17.789062 -61.273438 4.984375 -48.382812 4.984375 -30.078125 C 4.984375 -11.773438 17.789062 1.117188 36.09375 1.117188 Z M 12.71875 -30.078125 C 12.71875 -44.085938 22.257812 -53.710938 36.09375 -53.710938 C 49.929688 -53.710938 59.46875 -44.085938 59.46875 -30.078125 C 59.46875 -16.070312 49.929688 -6.445312 36.09375 -6.445312 C 22.257812 -6.445312 12.71875 -16.070312 12.71875 -30.078125 Z M 12.71875 -30.078125 "/></g></g></g><g fill="#000000" fill-opacity="1"><g transform="translate(486.190915, 1128.382331)"><g><path d="M 8.765625 0 L 45.546875 0 L 45.546875 -7.21875 L 16.328125 -7.21875 L 16.328125 -60.15625 L 8.765625 -60.15625 Z M 8.765625 0 "/></g></g></g><g fill="#000000" fill-opacity="1"><g transform="translate(534.397367, 1128.382331)"><g><path d="M 8.765625 0 L 45.546875 0 L 45.546875 -7.21875 L 16.328125 -7.21875 L 16.328125 -60.15625 L 8.765625 -60.15625 Z M 8.765625 0 "/></g></g></g><g fill="#000000" fill-opacity="1"><g transform="translate(582.603818, 1128.382331)"><g><path d="M 8.765625 0 L 46.234375 0 L 46.234375 -7.046875 L 16.328125 -7.046875 L 16.328125 -27.15625 L 43.140625 -27.15625 L 43.140625 -34.117188 L 16.328125 -34.117188 L 16.328125 -53.109375 L 45.289062 -53.109375 L 45.289062 -60.15625 L 8.765625 -60.15625 Z M 8.765625 0 "/></g></g></g><g fill="#000000" fill-opacity="1"><g transform="translate(634.419304, 1128.382331)"><g><path d="M 35.40625 1.117188 C 50.015625 1.117188 61.875 -7.734375 65.484375 -21.140625 L 57.492188 -21.140625 C 54.398438 -12.117188 45.890625 -6.445312 35.664062 -6.445312 C 22.257812 -6.445312 12.71875 -16.15625 12.71875 -30.078125 C 12.71875 -44 22.257812 -53.710938 35.664062 -53.710938 C 45.632812 -53.710938 53.796875 -48.382812 56.890625 -39.703125 L 64.96875 -39.703125 C 61.015625 -52.9375 49.585938 -61.273438 35.40625 -61.273438 C 17.703125 -61.273438 4.984375 -48.210938 4.984375 -30.078125 C 4.984375 -11.945312 17.703125 1.117188 35.40625 1.117188 Z M 35.40625 1.117188 "/></g></g></g><g fill="#000000" fill-opacity="1"><g transform="translate(704.537759, 1128.382331)"><g><path d="M 23.289062 0 L 30.851562 0 L 30.851562 -52.9375 L 51.132812 -52.9375 L 51.132812 -60.15625 L 2.921875 -60.15625 L 2.921875 -52.9375 L 23.289062 -52.9375 Z M 23.289062 0 "/></g></g></g><g fill="#000000" fill-opacity="1"><g transform="translate(758.673328, 1128.382331)"><g><path d="M 8.765625 0 L 16.328125 0 L 16.328125 -60.15625 L 8.765625 -60.15625 Z M 8.765625 0 "/></g></g></g><g fill="#000000" fill-opacity="1"><g transform="translate(783.764725, 1128.382331)"><g><path d="M 36.09375 1.117188 C 54.398438 1.117188 67.289062 -11.773438 67.289062 -30.078125 C 67.289062 -48.382812 54.398438 -61.273438 36.09375 -61.273438 C 17.789062 -61.273438 4.984375 -48.382812 4.984375 -30.078125 C 4.984375 -11.773438 17.789062 1.117188 36.09375 1.117188 Z M 12.71875 -30.078125 C 12.71875 -44.085938 22.257812 -53.710938 36.09375 -53.710938 C 49.929688 -53.710938 59.46875 -44.085938 59.46875 -30.078125 C 59.46875 -16.070312 49.929688 -6.445312 36.09375 -6.445312 C 22.257812 -6.445312 12.71875 -16.070312 12.71875 -30.078125 Z M 12.71875 -30.078125 "/></g></g></g><g fill="#000000" fill-opacity="1"><g transform="translate(855.945515, 1128.382331)"><g><path d="M 8.765625 0 L 16.242188 0 L 16.242188 -47.09375 L 49.5 0 L 56.546875 0 L 56.546875 -60.15625 L 49.15625 -60.15625 L 49.15625 -13.0625 L 15.898438 -60.15625 L 8.765625 -60.15625 Z M 8.765625 0 "/></g></g></g></svg>