<svg xmlns="http://www.w3.org/2000/svg" xmlns:xlink="http://www.w3.org/1999/xlink" width="500" zoomAndPan="magnify" viewBox="0 0 375 374.999991" height="500" preserveAspectRatio="xMidYMid meet" version="1.0"><defs><g/><linearGradient x1="0" gradientTransform="matrix(0.75, 0, 0, 0.75, 0.0000045, 0)" y1="0" x2="499.999979" gradientUnits="userSpaceOnUse" y2="0" id="ddb83e757d"><stop stop-opacity="1" stop-color="rgb(100%, 19.198608%, 19.198608%)" offset="0"/><stop stop-opacity="1" stop-color="rgb(100%, 19.345093%, 19.241333%)" offset="0.0078125"/><stop stop-opacity="1" stop-color="rgb(100%, 19.639587%, 19.328308%)" offset="0.015625"/><stop stop-opacity="1" stop-color="rgb(100%, 19.934082%, 19.413757%)" offset="0.0234375"/><stop stop-opacity="1" stop-color="rgb(100%, 20.230103%, 19.499207%)" offset="0.03125"/><stop stop-opacity="1" stop-color="rgb(100%, 20.524597%, 19.586182%)" offset="0.0390625"/><stop stop-opacity="1" stop-color="rgb(100%, 20.819092%, 19.671631%)" offset="0.046875"/><stop stop-opacity="1" stop-color="rgb(100%, 21.113586%, 19.75708%)" offset="0.0546875"/><stop stop-opacity="1" stop-color="rgb(100%, 21.408081%, 19.844055%)" offset="0.0625"/><stop stop-opacity="1" stop-color="rgb(100%, 21.702576%, 19.929504%)" offset="0.0703125"/><stop stop-opacity="1" stop-color="rgb(100%, 21.99707%, 20.014954%)" offset="0.078125"/><stop stop-opacity="1" stop-color="rgb(100%, 22.291565%, 20.101929%)" offset="0.0859375"/><stop stop-opacity="1" stop-color="rgb(100%, 22.58606%, 20.187378%)" offset="0.09375"/><stop stop-opacity="1" stop-color="rgb(100%, 22.880554%, 20.272827%)" offset="0.101562"/><stop stop-opacity="1" stop-color="rgb(100%, 23.175049%, 20.359802%)" offset="0.109375"/><stop stop-opacity="1" stop-color="rgb(100%, 23.469543%, 20.445251%)" offset="0.117188"/><stop stop-opacity="1" stop-color="rgb(100%, 23.764038%, 20.530701%)" offset="0.125"/><stop stop-opacity="1" stop-color="rgb(100%, 24.058533%, 20.617676%)" offset="0.132812"/><stop stop-opacity="1" stop-color="rgb(100%, 24.353027%, 20.703125%)" offset="0.140625"/><stop stop-opacity="1" stop-color="rgb(100%, 24.647522%, 20.788574%)" offset="0.148437"/><stop stop-opacity="1" stop-color="rgb(100%, 24.942017%, 20.874023%)" offset="0.15625"/><stop stop-opacity="1" stop-color="rgb(100%, 25.236511%, 20.960999%)" offset="0.164062"/><stop stop-opacity="1" stop-color="rgb(100%, 25.531006%, 21.046448%)" offset="0.171875"/><stop stop-opacity="1" stop-color="rgb(100%, 25.8255%, 21.131897%)" offset="0.179687"/><stop stop-opacity="1" stop-color="rgb(100%, 26.119995%, 21.218872%)" offset="0.1875"/><stop stop-opacity="1" stop-color="rgb(100%, 26.41449%, 21.304321%)" offset="0.195312"/><stop stop-opacity="1" stop-color="rgb(100%, 26.708984%, 21.389771%)" offset="0.203125"/><stop stop-opacity="1" stop-color="rgb(100%, 27.003479%, 21.476746%)" offset="0.210938"/><stop stop-opacity="1" stop-color="rgb(100%, 27.297974%, 21.562195%)" offset="0.21875"/><stop stop-opacity="1" stop-color="rgb(100%, 27.592468%, 21.647644%)" offset="0.226562"/><stop stop-opacity="1" stop-color="rgb(100%, 27.886963%, 21.734619%)" offset="0.234375"/><stop stop-opacity="1" stop-color="rgb(100%, 28.181458%, 21.820068%)" offset="0.242188"/><stop stop-opacity="1" stop-color="rgb(100%, 28.475952%, 21.905518%)" offset="0.25"/><stop stop-opacity="1" stop-color="rgb(100%, 28.770447%, 21.992493%)" offset="0.257812"/><stop stop-opacity="1" stop-color="rgb(100%, 29.064941%, 22.077942%)" offset="0.265625"/><stop stop-opacity="1" stop-color="rgb(100%, 29.359436%, 22.163391%)" offset="0.273437"/><stop stop-opacity="1" stop-color="rgb(100%, 29.653931%, 22.250366%)" offset="0.28125"/><stop stop-opacity="1" stop-color="rgb(100%, 29.948425%, 22.335815%)" offset="0.289062"/><stop stop-opacity="1" stop-color="rgb(100%, 30.24292%, 22.421265%)" offset="0.296875"/><stop stop-opacity="1" stop-color="rgb(100%, 30.537415%, 22.50824%)" offset="0.304687"/><stop stop-opacity="1" stop-color="rgb(100%, 30.831909%, 22.593689%)" offset="0.3125"/><stop stop-opacity="1" stop-color="rgb(100%, 31.126404%, 22.679138%)" offset="0.320312"/><stop stop-opacity="1" stop-color="rgb(100%, 31.420898%, 22.766113%)" offset="0.328125"/><stop stop-opacity="1" stop-color="rgb(100%, 31.715393%, 22.851562%)" offset="0.335937"/><stop stop-opacity="1" stop-color="rgb(100%, 32.009888%, 22.937012%)" offset="0.34375"/><stop stop-opacity="1" stop-color="rgb(100%, 32.304382%, 23.022461%)" offset="0.351562"/><stop stop-opacity="1" stop-color="rgb(100%, 32.600403%, 23.109436%)" offset="0.359375"/><stop stop-opacity="1" stop-color="rgb(100%, 32.894897%, 23.194885%)" offset="0.367187"/><stop stop-opacity="1" stop-color="rgb(100%, 33.189392%, 23.280334%)" offset="0.375"/><stop stop-opacity="1" stop-color="rgb(100%, 33.483887%, 23.36731%)" offset="0.382812"/><stop stop-opacity="1" stop-color="rgb(100%, 33.778381%, 23.452759%)" offset="0.390625"/><stop stop-opacity="1" stop-color="rgb(100%, 34.072876%, 23.538208%)" offset="0.398438"/><stop stop-opacity="1" stop-color="rgb(100%, 34.367371%, 23.625183%)" offset="0.40625"/><stop stop-opacity="1" stop-color="rgb(100%, 34.661865%, 23.710632%)" offset="0.414062"/><stop stop-opacity="1" stop-color="rgb(100%, 34.95636%, 23.796082%)" offset="0.421875"/><stop stop-opacity="1" stop-color="rgb(100%, 35.250854%, 23.883057%)" offset="0.429688"/><stop stop-opacity="1" stop-color="rgb(100%, 35.545349%, 23.968506%)" offset="0.4375"/><stop stop-opacity="1" stop-color="rgb(100%, 35.839844%, 24.053955%)" offset="0.445312"/><stop stop-opacity="1" stop-color="rgb(100%, 36.134338%, 24.14093%)" offset="0.453125"/><stop stop-opacity="1" stop-color="rgb(100%, 36.428833%, 24.226379%)" offset="0.460938"/><stop stop-opacity="1" stop-color="rgb(100%, 36.723328%, 24.311829%)" offset="0.46875"/><stop stop-opacity="1" stop-color="rgb(100%, 37.017822%, 24.398804%)" offset="0.476562"/><stop stop-opacity="1" stop-color="rgb(100%, 37.312317%, 24.484253%)" offset="0.484375"/><stop stop-opacity="1" stop-color="rgb(100%, 37.606812%, 24.569702%)" offset="0.492188"/><stop stop-opacity="1" stop-color="rgb(100%, 37.901306%, 24.656677%)" offset="0.5"/><stop stop-opacity="1" stop-color="rgb(100%, 38.195801%, 24.742126%)" offset="0.507812"/><stop stop-opacity="1" stop-color="rgb(100%, 38.490295%, 24.827576%)" offset="0.515625"/><stop stop-opacity="1" stop-color="rgb(100%, 38.78479%, 24.914551%)" offset="0.523437"/><stop stop-opacity="1" stop-color="rgb(100%, 39.079285%, 25%)" offset="0.53125"/><stop stop-opacity="1" stop-color="rgb(100%, 39.373779%, 25.085449%)" offset="0.539062"/><stop stop-opacity="1" stop-color="rgb(100%, 39.668274%, 25.170898%)" offset="0.546875"/><stop stop-opacity="1" stop-color="rgb(100%, 39.962769%, 25.257874%)" offset="0.554687"/><stop stop-opacity="1" stop-color="rgb(100%, 40.257263%, 25.343323%)" offset="0.5625"/><stop stop-opacity="1" stop-color="rgb(100%, 40.551758%, 25.428772%)" offset="0.570312"/><stop stop-opacity="1" stop-color="rgb(100%, 40.846252%, 25.515747%)" offset="0.578125"/><stop stop-opacity="1" stop-color="rgb(100%, 41.140747%, 25.601196%)" offset="0.585937"/><stop stop-opacity="1" stop-color="rgb(100%, 41.435242%, 25.686646%)" offset="0.59375"/><stop stop-opacity="1" stop-color="rgb(100%, 41.729736%, 25.773621%)" offset="0.601562"/><stop stop-opacity="1" stop-color="rgb(100%, 42.024231%, 25.85907%)" offset="0.609375"/><stop stop-opacity="1" stop-color="rgb(100%, 42.318726%, 25.944519%)" offset="0.617187"/><stop stop-opacity="1" stop-color="rgb(100%, 42.61322%, 26.031494%)" offset="0.625"/><stop stop-opacity="1" stop-color="rgb(100%, 42.907715%, 26.116943%)" offset="0.632812"/><stop stop-opacity="1" stop-color="rgb(100%, 43.202209%, 26.202393%)" offset="0.640625"/><stop stop-opacity="1" stop-color="rgb(100%, 43.496704%, 26.289368%)" offset="0.648437"/><stop stop-opacity="1" stop-color="rgb(100%, 43.791199%, 26.374817%)" offset="0.65625"/><stop stop-opacity="1" stop-color="rgb(100%, 44.085693%, 26.460266%)" offset="0.664062"/><stop stop-opacity="1" stop-color="rgb(100%, 44.380188%, 26.547241%)" offset="0.671875"/><stop stop-opacity="1" stop-color="rgb(100%, 44.674683%, 26.63269%)" offset="0.679687"/><stop stop-opacity="1" stop-color="rgb(100%, 44.970703%, 26.71814%)" offset="0.6875"/><stop stop-opacity="1" stop-color="rgb(100%, 45.265198%, 26.805115%)" offset="0.695312"/><stop stop-opacity="1" stop-color="rgb(100%, 45.559692%, 26.890564%)" offset="0.703125"/><stop stop-opacity="1" stop-color="rgb(100%, 45.854187%, 26.976013%)" offset="0.710937"/><stop stop-opacity="1" stop-color="rgb(100%, 46.148682%, 27.062988%)" offset="0.71875"/><stop stop-opacity="1" stop-color="rgb(100%, 46.443176%, 27.148438%)" offset="0.726562"/><stop stop-opacity="1" stop-color="rgb(100%, 46.737671%, 27.233887%)" offset="0.734375"/><stop stop-opacity="1" stop-color="rgb(100%, 47.032166%, 27.319336%)" offset="0.742187"/><stop stop-opacity="1" stop-color="rgb(100%, 47.32666%, 27.406311%)" offset="0.75"/><stop stop-opacity="1" stop-color="rgb(100%, 47.621155%, 27.49176%)" offset="0.757812"/><stop stop-opacity="1" stop-color="rgb(100%, 47.915649%, 27.577209%)" offset="0.765625"/><stop stop-opacity="1" stop-color="rgb(100%, 48.210144%, 27.664185%)" offset="0.773438"/><stop stop-opacity="1" stop-color="rgb(100%, 48.504639%, 27.749634%)" offset="0.78125"/><stop stop-opacity="1" stop-color="rgb(100%, 48.799133%, 27.835083%)" offset="0.789062"/><stop stop-opacity="1" stop-color="rgb(100%, 49.093628%, 27.922058%)" offset="0.796875"/><stop stop-opacity="1" stop-color="rgb(100%, 49.388123%, 28.007507%)" offset="0.804688"/><stop stop-opacity="1" stop-color="rgb(100%, 49.682617%, 28.092957%)" offset="0.8125"/><stop stop-opacity="1" stop-color="rgb(100%, 49.977112%, 28.179932%)" offset="0.820312"/><stop stop-opacity="1" stop-color="rgb(100%, 50.271606%, 28.265381%)" offset="0.828125"/><stop stop-opacity="1" stop-color="rgb(100%, 50.566101%, 28.35083%)" offset="0.835938"/><stop stop-opacity="1" stop-color="rgb(100%, 50.860596%, 28.437805%)" offset="0.84375"/><stop stop-opacity="1" stop-color="rgb(100%, 51.15509%, 28.523254%)" offset="0.851562"/><stop stop-opacity="1" stop-color="rgb(100%, 51.449585%, 28.608704%)" offset="0.859375"/><stop stop-opacity="1" stop-color="rgb(100%, 51.74408%, 28.695679%)" offset="0.867188"/><stop stop-opacity="1" stop-color="rgb(100%, 52.038574%, 28.781128%)" offset="0.875"/><stop stop-opacity="1" stop-color="rgb(100%, 52.333069%, 28.866577%)" offset="0.882812"/><stop stop-opacity="1" stop-color="rgb(100%, 52.627563%, 28.953552%)" offset="0.890625"/><stop stop-opacity="1" stop-color="rgb(100%, 52.922058%, 29.039001%)" offset="0.898438"/><stop stop-opacity="1" stop-color="rgb(100%, 53.216553%, 29.124451%)" offset="0.90625"/><stop stop-opacity="1" stop-color="rgb(100%, 53.511047%, 29.211426%)" offset="0.914062"/><stop stop-opacity="1" stop-color="rgb(100%, 53.805542%, 29.296875%)" offset="0.921875"/><stop stop-opacity="1" stop-color="rgb(100%, 54.100037%, 29.382324%)" offset="0.929688"/><stop stop-opacity="1" stop-color="rgb(100%, 54.394531%, 29.467773%)" offset="0.9375"/><stop stop-opacity="1" stop-color="rgb(100%, 54.689026%, 29.554749%)" offset="0.945312"/><stop stop-opacity="1" stop-color="rgb(100%, 54.983521%, 29.640198%)" offset="0.953125"/><stop stop-opacity="1" stop-color="rgb(100%, 55.278015%, 29.725647%)" offset="0.960938"/><stop stop-opacity="1" stop-color="rgb(100%, 55.57251%, 29.812622%)" offset="0.96875"/><stop stop-opacity="1" stop-color="rgb(100%, 55.867004%, 29.898071%)" offset="0.976562"/><stop stop-opacity="1" stop-color="rgb(100%, 56.161499%, 29.983521%)" offset="0.984375"/><stop stop-opacity="1" stop-color="rgb(100%, 56.455994%, 30.070496%)" offset="0.992188"/><stop stop-opacity="1" stop-color="rgb(100%, 56.750488%, 30.155945%)" offset="1"/></linearGradient><clipPath id="ce73c4d02c"><path d="M 180.589844 73.726562 L 199.628906 73.726562 L 199.628906 92.765625 L 180.589844 92.765625 Z M 180.589844 73.726562 " clip-rule="nonzero"/></clipPath><clipPath id="30a9c286ef"><path d="M 190.109375 73.726562 C 184.851562 73.726562 180.589844 77.988281 180.589844 83.246094 C 180.589844 88.503906 184.851562 92.765625 190.109375 92.765625 C 195.367188 92.765625 199.628906 88.503906 199.628906 83.246094 C 199.628906 77.988281 195.367188 73.726562 190.109375 73.726562 Z M 190.109375 73.726562 " clip-rule="nonzero"/></clipPath><clipPath id="8474b21412"><path d="M 136.425781 179.367188 L 148.835938 179.367188 L 148.835938 191.773438 L 136.425781 191.773438 Z M 136.425781 179.367188 " clip-rule="nonzero"/></clipPath><clipPath id="a4ad587d07"><path d="M 142.632812 179.367188 C 139.203125 179.367188 136.425781 182.144531 136.425781 185.570312 C 136.425781 188.996094 139.203125 191.773438 142.632812 191.773438 C 146.058594 191.773438 148.835938 188.996094 148.835938 185.570312 C 148.835938 182.144531 146.058594 179.367188 142.632812 179.367188 Z M 142.632812 179.367188 " clip-rule="nonzero"/></clipPath><clipPath id="500b0246d2"><path d="M 129.988281 277.238281 L 146.101562 277.238281 L 146.101562 293.355469 L 129.988281 293.355469 Z M 129.988281 277.238281 " clip-rule="nonzero"/></clipPath><clipPath id="b8f0e74166"><path d="M 138.042969 277.238281 C 133.59375 277.238281 129.988281 280.847656 129.988281 285.296875 C 129.988281 289.746094 133.59375 293.355469 138.042969 293.355469 C 142.496094 293.355469 146.101562 289.746094 146.101562 285.296875 C 146.101562 280.847656 142.496094 277.238281 138.042969 277.238281 Z M 138.042969 277.238281 " clip-rule="nonzero"/></clipPath></defs><rect x="-37.5" width="450" fill="#ffffff" y="-37.499999" height="449.999989" fill-opacity="1"/><rect x="-37.5" fill="url(#ddb83e757d)" width="450" y="-37.499999" height="449.999989"/><g clip-path="url(#ce73c4d02c)"><g clip-path="url(#30a9c286ef)"><path fill="#ad9551" d="M 180.589844 73.726562 L 199.628906 73.726562 L 199.628906 92.765625 L 180.589844 92.765625 Z M 180.589844 73.726562 " fill-opacity="1" fill-rule="nonzero"/></g></g><g clip-path="url(#8474b21412)"><g clip-path="url(#a4ad587d07)"><path fill="#000000" d="M 136.425781 179.367188 L 148.835938 179.367188 L 148.835938 191.773438 L 136.425781 191.773438 Z M 136.425781 179.367188 " fill-opacity="1" fill-rule="nonzero"/></g></g><g clip-path="url(#500b0246d2)"><g clip-path="url(#b8f0e74166)"><path fill="#ad9551" d="M 129.988281 277.238281 L 146.101562 277.238281 L 146.101562 293.355469 L 129.988281 293.355469 Z M 129.988281 277.238281 " fill-opacity="1" fill-rule="nonzero"/></g></g><g fill="#000000" fill-opacity="1"><g transform="translate(33.596446, 243.375944)"><g><path d="M 298.9375 36.015625 C 293.269531 38.921875 286.675781 41.335938 279.15625 43.265625 C 271.632812 45.203125 264.941406 46.445312 259.078125 47 C 253.210938 47.550781 248.003906 47.828125 243.453125 47.828125 C 228.546875 47.828125 213.296875 45.269531 197.703125 40.15625 C 191.628906 38.226562 181.414062 34.363281 167.0625 28.5625 C 131.175781 14.207031 106.195312 5.648438 92.125 2.890625 L 92.125 0.828125 C 92.257812 0.828125 92.46875 0.828125 92.75 0.828125 C 116.757812 0.828125 135.113281 -7.035156 147.8125 -22.765625 C 157.195312 -34.503906 161.890625 -50.273438 161.890625 -70.078125 C 161.890625 -89.878906 155.675781 -106.816406 143.25 -120.890625 C 130.550781 -135.390625 114.0625 -142.640625 93.78125 -142.640625 C 81.5 -142.640625 70.179688 -139.738281 59.828125 -133.9375 C 49.472656 -128.144531 41.296875 -119.863281 35.296875 -109.09375 C 29.296875 -98.332031 26.296875 -86.1875 26.296875 -72.65625 C 26.296875 -63.414062 27.878906 -54.789062 31.046875 -46.78125 C 34.222656 -38.78125 38.640625 -32.226562 44.296875 -27.125 C 52.441406 -19.664062 61.894531 -15.9375 72.65625 -15.9375 C 78.457031 -15.9375 84.253906 -17.25 90.046875 -19.875 C 98.609375 -23.738281 104.335938 -30.222656 107.234375 -39.328125 L 109.09375 -38.71875 C 106.46875 -28.78125 101.085938 -21.117188 92.953125 -15.734375 C 86.878906 -11.734375 79.492188 -9.734375 70.796875 -9.734375 C 68.035156 -9.734375 65.066406 -9.9375 61.890625 -10.34375 C 45.742188 -12.695312 33.113281 -19.632812 24 -31.15625 C 14.894531 -42.675781 10.34375 -56.097656 10.34375 -71.421875 C 10.34375 -86.742188 14.035156 -100.300781 21.421875 -112.09375 C 28.804688 -123.894531 38.8125 -132.96875 51.4375 -139.3125 C 64.070312 -145.664062 77.910156 -148.84375 92.953125 -148.84375 C 109.648438 -148.84375 124.484375 -145.320312 137.453125 -138.28125 C 150.429688 -131.25 160.40625 -121.898438 167.375 -110.234375 C 174.34375 -98.578125 177.828125 -85.773438 177.828125 -71.828125 C 177.828125 -60.378906 175.789062 -49.992188 171.71875 -40.671875 C 167.644531 -31.359375 162.363281 -23.734375 155.875 -17.796875 C 142.90625 -5.929688 128.28125 1.101562 112 3.3125 C 123.175781 5.519531 140.492188 10.109375 163.953125 17.078125 C 187.421875 24.046875 199.222656 27.53125 199.359375 27.53125 C 219.234375 33.050781 238.347656 35.8125 256.703125 35.8125 C 267.191406 35.8125 277.539062 34.773438 287.75 32.703125 C 302.375 29.941406 313.484375 24.835938 321.078125 17.390625 L 321.90625 18.421875 C 318.175781 24.359375 310.519531 30.222656 298.9375 36.015625 Z M 298.9375 36.015625 "/></g></g></g><g fill="#000000" fill-opacity="1"><g transform="translate(223.842904, 243.375944)"><g><path d="M 24.640625 -55.0625 C 17.460938 -45.675781 13.875 -35.535156 13.875 -24.640625 C 13.875 -11.660156 19.320312 -1.582031 30.21875 5.59375 C 36.570312 9.863281 43.785156 12 51.859375 12 C 59.929688 12 66.9375 10.414062 72.875 7.25 C 84.050781 1.445312 90.328125 -8.28125 91.703125 -21.9375 C 91.847656 -22.90625 91.921875 -23.875 91.921875 -24.84375 C 91.921875 -29.945312 90.503906 -35.46875 87.671875 -41.40625 C 84.835938 -47.34375 80.25 -52.789062 73.90625 -57.75 L 36.640625 -87.15625 C 28.492188 -93.5 24.421875 -101.707031 24.421875 -111.78125 C 24.421875 -121.863281 27.664062 -130.390625 34.15625 -137.359375 C 40.644531 -144.328125 49.410156 -147.8125 60.453125 -147.8125 C 65.972656 -147.8125 71.972656 -147.117188 78.453125 -145.734375 L 86.734375 -145.734375 L 87.15625 -120.28125 L 85.078125 -120.28125 C 84.941406 -126.90625 82.5625 -132.113281 77.9375 -135.90625 C 73.3125 -139.695312 67.515625 -141.59375 60.546875 -141.59375 C 53.578125 -141.59375 47.742188 -139.28125 43.046875 -134.65625 C 38.359375 -130.039062 36.015625 -124.109375 36.015625 -116.859375 C 36.015625 -109.609375 39.050781 -103.570312 45.125 -98.75 L 83.421875 -68.515625 C 98.609375 -56.515625 106.203125 -42.023438 106.203125 -25.046875 C 106.203125 -12.347656 101.164062 -1.445312 91.09375 7.65625 C 82.394531 15.519531 70.800781 19.453125 56.3125 19.453125 C 47.476562 19.453125 39.609375 17.796875 32.703125 14.484375 C 19.734375 8.410156 11.9375 -1.9375 9.3125 -16.5625 C 8.894531 -18.769531 8.6875 -21.5625 8.6875 -24.9375 C 8.6875 -28.320312 9.648438 -32.945312 11.578125 -38.8125 C 13.515625 -44.675781 17.242188 -50.578125 22.765625 -56.515625 Z M 24.640625 -55.0625 "/></g></g></g></svg>