<svg xmlns="http://www.w3.org/2000/svg" xmlns:xlink="http://www.w3.org/1999/xlink" width="500" zoomAndPan="magnify" viewBox="0 0 375 374.999991" height="500" preserveAspectRatio="xMidYMid meet" version="1.0"><defs><g/><clipPath id="44c0788db7"><path d="M 66.097656 70.332031 L 323 70.332031 L 323 235.332031 L 66.097656 235.332031 Z M 66.097656 70.332031 " clip-rule="nonzero"/></clipPath></defs><rect x="-37.5" width="450" fill="#ffffff" y="-37.499999" height="449.999989" fill-opacity="1"/><rect x="-37.5" width="450" fill="#ffffff" y="-37.499999" height="449.999989" fill-opacity="1"/><g clip-path="url(#44c0788db7)"><path fill="#ffffff" d="M 140.429688 76.246094 L 68.617188 144.050781 C 66.84375 145.722656 66.1875 148.265625 66.925781 150.585938 L 74.117188 173.222656 C 74.589844 174.707031 75.503906 176.007812 76.734375 176.953125 L 149.058594 232.5 C 151.296875 234.222656 154.492188 233.90625 156.347656 231.773438 L 157.902344 229.992188 C 159.640625 228 162.519531 227.457031 164.863281 228.679688 L 175.480469 234.21875 C 177.148438 235.085938 179.070312 235.339844 180.90625 234.929688 L 276.773438 213.574219 C 279.121094 213.050781 280.589844 210.710938 280.039062 208.367188 L 278.890625 203.488281 C 278.285156 200.914062 279.105469 198.21875 281.035156 196.417969 L 320.621094 159.53125 C 323.078125 157.242188 323.171875 153.378906 320.828125 150.976562 L 244.519531 72.566406 C 242.433594 70.421875 239.023438 70.308594 236.800781 72.3125 L 225.339844 82.625 C 223.054688 84.679688 219.664062 84.90625 217.125 83.171875 C 213.039062 80.375 204.503906 76.832031 194.121094 76.832031 C 182.527344 76.832031 173.726562 81.855469 168.4375 85.097656 C 165.933594 86.632812 162.757812 86.527344 160.351562 84.839844 L 147.375 75.738281 C 145.234375 74.238281 142.332031 74.449219 140.429688 76.246094 Z M 140.429688 76.246094 " fill-opacity="1" fill-rule="nonzero"/></g><path fill="#0fb1ea" d="M 143.695312 81.0625 L 80.199219 167.652344 L 155.515625 224.644531 L 216.757812 136.347656 Z M 143.695312 81.0625 " fill-opacity="1" fill-rule="nonzero"/><path fill="#094459" d="M 143.695312 81.0625 L 73.433594 149.5 L 80.199219 167.652344 Z M 143.695312 81.0625 " fill-opacity="1" fill-rule="nonzero"/><path fill="#094459" d="M 187.996094 133.746094 C 187.597656 133.746094 187.195312 133.617188 186.851562 133.355469 C 186.027344 132.726562 185.871094 131.546875 186.503906 130.722656 C 186.667969 130.507812 202.726562 109.367188 200.871094 95.664062 C 200.429688 92.421875 199.039062 89.953125 196.609375 88.117188 C 194.175781 86.273438 191.414062 85.613281 188.191406 86.070312 C 174.511719 88.03125 158.613281 109.269531 158.453125 109.484375 C 157.835938 110.320312 156.65625 110.496094 155.824219 109.875 C 154.992188 109.257812 154.816406 108.078125 155.433594 107.246094 C 156.121094 106.320312 172.441406 84.53125 187.660156 82.351562 C 191.875 81.742188 195.652344 82.675781 198.875 85.117188 C 202.101562 87.554688 204.027344 90.9375 204.597656 95.164062 C 206.65625 110.417969 190.191406 132.09375 189.488281 133.007812 C 189.117188 133.492188 188.558594 133.746094 187.996094 133.746094 Z M 187.996094 133.746094 " fill-opacity="1" fill-rule="nonzero"/><path fill="#f7ce26" d="M 153.042969 122.417969 L 179.0625 226.59375 L 271.027344 205.089844 L 242.261719 101.558594 Z M 153.042969 122.417969 " fill-opacity="1" fill-rule="nonzero"/><path fill="#094459" d="M 153.042969 122.417969 L 160.171875 220.25 L 179.0625 226.59375 Z M 153.042969 122.417969 " fill-opacity="1" fill-rule="nonzero"/><path fill="#094459" d="M 182.507812 131.558594 C 181.664062 131.558594 180.894531 130.984375 180.683594 130.125 C 180.410156 129.003906 174.085938 102.523438 182.132812 89.425781 C 184.363281 85.796875 187.492188 83.488281 191.429688 82.570312 C 195.359375 81.644531 199.195312 82.328125 202.8125 84.589844 C 215.859375 92.75 222.007812 119.273438 222.261719 120.394531 C 222.492188 121.410156 221.859375 122.414062 220.847656 122.644531 C 219.824219 122.882812 218.824219 122.242188 218.59375 121.230469 C 218.535156 120.96875 212.539062 95.105469 200.816406 87.773438 C 198.042969 86.039062 195.25 85.535156 192.285156 86.230469 C 189.316406 86.921875 187.046875 88.613281 185.335938 91.394531 C 178.101562 103.167969 184.273438 128.972656 184.335938 129.234375 C 184.582031 130.242188 183.964844 131.257812 182.957031 131.503906 C 182.808594 131.542969 182.65625 131.558594 182.507812 131.558594 Z M 182.507812 131.558594 " fill-opacity="1" fill-rule="nonzero"/><path fill="#f07423" d="M 169.332031 137.941406 L 240.835938 218.046875 L 312.234375 156.21875 L 238.59375 77.964844 Z M 169.332031 137.941406 " fill-opacity="1" fill-rule="nonzero"/><path fill="#094459" d="M 169.332031 137.941406 L 221.164062 221.222656 L 240.835938 218.046875 Z M 169.332031 137.941406 " fill-opacity="1" fill-rule="nonzero"/><path fill="#094459" d="M 198.792969 132.539062 C 198.273438 132.539062 197.757812 132.324219 197.382812 131.902344 C 196.621094 131.035156 178.699219 110.542969 179.726562 95.207031 C 180.011719 90.957031 181.707031 87.457031 184.765625 84.808594 C 187.820312 82.164062 191.53125 80.980469 195.785156 81.300781 C 211.132812 82.457031 228.910156 103.066406 229.660156 103.945312 C 230.335938 104.734375 230.242188 105.921875 229.453125 106.59375 C 228.664062 107.269531 227.476562 107.175781 226.804688 106.386719 C 226.628906 106.183594 209.285156 86.085938 195.496094 85.050781 C 192.253906 84.808594 189.53125 85.65625 187.226562 87.652344 C 184.921875 89.644531 183.695312 92.199219 183.480469 95.457031 C 182.554688 109.246094 200.027344 129.214844 200.203125 129.414062 C 200.890625 130.191406 200.816406 131.378906 200.039062 132.070312 C 199.679688 132.382812 199.238281 132.539062 198.792969 132.539062 Z M 198.792969 132.539062 " fill-opacity="1" fill-rule="nonzero"/><g fill="#ef5e04" fill-opacity="0.302"><g transform="translate(91.501712, 264.297691)"><g><path d="M 229.296875 27.625 C 224.960938 29.851562 219.910156 31.707031 214.140625 33.1875 C 208.367188 34.664062 203.234375 35.617188 198.734375 36.046875 C 194.234375 36.472656 190.238281 36.6875 186.75 36.6875 C 175.3125 36.6875 163.613281 34.726562 151.65625 30.8125 C 146.988281 29.320312 139.15625 26.351562 128.15625 21.90625 C 100.625 10.90625 81.460938 4.34375 70.671875 2.21875 L 70.671875 0.640625 C 70.773438 0.640625 70.929688 0.640625 71.140625 0.640625 C 89.554688 0.640625 103.632812 -5.394531 113.375 -17.46875 C 120.570312 -26.46875 124.171875 -38.5625 124.171875 -53.75 C 124.171875 -68.945312 119.410156 -81.941406 109.890625 -92.734375 C 100.148438 -103.847656 87.5 -109.40625 71.9375 -109.40625 C 62.507812 -109.40625 53.828125 -107.179688 45.890625 -102.734375 C 37.953125 -98.296875 31.679688 -91.945312 27.078125 -83.6875 C 22.472656 -75.425781 20.171875 -66.109375 20.171875 -55.734375 C 20.171875 -48.640625 21.382812 -42.019531 23.8125 -35.875 C 26.25 -29.738281 29.640625 -24.710938 33.984375 -20.796875 C 40.222656 -15.085938 47.472656 -12.234375 55.734375 -12.234375 C 60.179688 -12.234375 64.628906 -13.238281 69.078125 -15.25 C 75.640625 -18.207031 80.03125 -23.179688 82.25 -30.171875 L 83.6875 -29.6875 C 81.675781 -22.070312 77.546875 -16.195312 71.296875 -12.0625 C 66.640625 -9 60.976562 -7.46875 54.3125 -7.46875 C 52.1875 -7.46875 49.910156 -7.625 47.484375 -7.9375 C 35.097656 -9.738281 25.410156 -15.054688 18.421875 -23.890625 C 11.429688 -32.734375 7.9375 -43.03125 7.9375 -54.78125 C 7.9375 -66.53125 10.769531 -76.929688 16.4375 -85.984375 C 22.101562 -95.035156 29.773438 -101.992188 39.453125 -106.859375 C 49.140625 -111.734375 59.753906 -114.171875 71.296875 -114.171875 C 84.109375 -114.171875 95.488281 -111.472656 105.4375 -106.078125 C 115.394531 -100.679688 123.046875 -93.507812 128.390625 -84.5625 C 133.734375 -75.613281 136.40625 -65.796875 136.40625 -55.109375 C 136.40625 -46.316406 134.84375 -38.347656 131.71875 -31.203125 C 128.59375 -24.054688 124.546875 -18.207031 119.578125 -13.65625 C 109.617188 -4.550781 98.394531 0.847656 85.90625 2.546875 C 94.476562 4.234375 107.765625 7.75 125.765625 13.09375 C 143.765625 18.445312 152.816406 21.125 152.921875 21.125 C 168.160156 25.351562 182.820312 27.46875 196.90625 27.46875 C 204.957031 27.46875 212.898438 26.675781 220.734375 25.09375 C 231.953125 22.96875 240.472656 19.050781 246.296875 13.34375 L 246.921875 14.140625 C 244.066406 18.691406 238.191406 23.1875 229.296875 27.625 Z M 229.296875 27.625 "/></g></g></g><g fill="#ef5e04" fill-opacity="0.502"><g transform="translate(84.483822, 257.279801)"><g><path d="M 229.296875 27.625 C 224.960938 29.851562 219.910156 31.707031 214.140625 33.1875 C 208.367188 34.664062 203.234375 35.617188 198.734375 36.046875 C 194.234375 36.472656 190.238281 36.6875 186.75 36.6875 C 175.3125 36.6875 163.613281 34.726562 151.65625 30.8125 C 146.988281 29.320312 139.15625 26.351562 128.15625 21.90625 C 100.625 10.90625 81.460938 4.34375 70.671875 2.21875 L 70.671875 0.640625 C 70.773438 0.640625 70.929688 0.640625 71.140625 0.640625 C 89.554688 0.640625 103.632812 -5.394531 113.375 -17.46875 C 120.570312 -26.46875 124.171875 -38.5625 124.171875 -53.75 C 124.171875 -68.945312 119.410156 -81.941406 109.890625 -92.734375 C 100.148438 -103.847656 87.5 -109.40625 71.9375 -109.40625 C 62.507812 -109.40625 53.828125 -107.179688 45.890625 -102.734375 C 37.953125 -98.296875 31.679688 -91.945312 27.078125 -83.6875 C 22.472656 -75.425781 20.171875 -66.109375 20.171875 -55.734375 C 20.171875 -48.640625 21.382812 -42.019531 23.8125 -35.875 C 26.25 -29.738281 29.640625 -24.710938 33.984375 -20.796875 C 40.222656 -15.085938 47.472656 -12.234375 55.734375 -12.234375 C 60.179688 -12.234375 64.628906 -13.238281 69.078125 -15.25 C 75.640625 -18.207031 80.03125 -23.179688 82.25 -30.171875 L 83.6875 -29.6875 C 81.675781 -22.070312 77.546875 -16.195312 71.296875 -12.0625 C 66.640625 -9 60.976562 -7.46875 54.3125 -7.46875 C 52.1875 -7.46875 49.910156 -7.625 47.484375 -7.9375 C 35.097656 -9.738281 25.410156 -15.054688 18.421875 -23.890625 C 11.429688 -32.734375 7.9375 -43.03125 7.9375 -54.78125 C 7.9375 -66.53125 10.769531 -76.929688 16.4375 -85.984375 C 22.101562 -95.035156 29.773438 -101.992188 39.453125 -106.859375 C 49.140625 -111.734375 59.753906 -114.171875 71.296875 -114.171875 C 84.109375 -114.171875 95.488281 -111.472656 105.4375 -106.078125 C 115.394531 -100.679688 123.046875 -93.507812 128.390625 -84.5625 C 133.734375 -75.613281 136.40625 -65.796875 136.40625 -55.109375 C 136.40625 -46.316406 134.84375 -38.347656 131.71875 -31.203125 C 128.59375 -24.054688 124.546875 -18.207031 119.578125 -13.65625 C 109.617188 -4.550781 98.394531 0.847656 85.90625 2.546875 C 94.476562 4.234375 107.765625 7.75 125.765625 13.09375 C 143.765625 18.445312 152.816406 21.125 152.921875 21.125 C 168.160156 25.351562 182.820312 27.46875 196.90625 27.46875 C 204.957031 27.46875 212.898438 26.675781 220.734375 25.09375 C 231.953125 22.96875 240.472656 19.050781 246.296875 13.34375 L 246.921875 14.140625 C 244.066406 18.691406 238.191406 23.1875 229.296875 27.625 Z M 229.296875 27.625 "/></g></g></g><g fill="#d80356" fill-opacity="1"><g transform="translate(77.465933, 250.261911)"><g><path d="M 229.296875 27.625 C 224.960938 29.851562 219.910156 31.707031 214.140625 33.1875 C 208.367188 34.664062 203.234375 35.617188 198.734375 36.046875 C 194.234375 36.472656 190.238281 36.6875 186.75 36.6875 C 175.3125 36.6875 163.613281 34.726562 151.65625 30.8125 C 146.988281 29.320312 139.15625 26.351562 128.15625 21.90625 C 100.625 10.90625 81.460938 4.34375 70.671875 2.21875 L 70.671875 0.640625 C 70.773438 0.640625 70.929688 0.640625 71.140625 0.640625 C 89.554688 0.640625 103.632812 -5.394531 113.375 -17.46875 C 120.570312 -26.46875 124.171875 -38.5625 124.171875 -53.75 C 124.171875 -68.945312 119.410156 -81.941406 109.890625 -92.734375 C 100.148438 -103.847656 87.5 -109.40625 71.9375 -109.40625 C 62.507812 -109.40625 53.828125 -107.179688 45.890625 -102.734375 C 37.953125 -98.296875 31.679688 -91.945312 27.078125 -83.6875 C 22.472656 -75.425781 20.171875 -66.109375 20.171875 -55.734375 C 20.171875 -48.640625 21.382812 -42.019531 23.8125 -35.875 C 26.25 -29.738281 29.640625 -24.710938 33.984375 -20.796875 C 40.222656 -15.085938 47.472656 -12.234375 55.734375 -12.234375 C 60.179688 -12.234375 64.628906 -13.238281 69.078125 -15.25 C 75.640625 -18.207031 80.03125 -23.179688 82.25 -30.171875 L 83.6875 -29.6875 C 81.675781 -22.070312 77.546875 -16.195312 71.296875 -12.0625 C 66.640625 -9 60.976562 -7.46875 54.3125 -7.46875 C 52.1875 -7.46875 49.910156 -7.625 47.484375 -7.9375 C 35.097656 -9.738281 25.410156 -15.054688 18.421875 -23.890625 C 11.429688 -32.734375 7.9375 -43.03125 7.9375 -54.78125 C 7.9375 -66.53125 10.769531 -76.929688 16.4375 -85.984375 C 22.101562 -95.035156 29.773438 -101.992188 39.453125 -106.859375 C 49.140625 -111.734375 59.753906 -114.171875 71.296875 -114.171875 C 84.109375 -114.171875 95.488281 -111.472656 105.4375 -106.078125 C 115.394531 -100.679688 123.046875 -93.507812 128.390625 -84.5625 C 133.734375 -75.613281 136.40625 -65.796875 136.40625 -55.109375 C 136.40625 -46.316406 134.84375 -38.347656 131.71875 -31.203125 C 128.59375 -24.054688 124.546875 -18.207031 119.578125 -13.65625 C 109.617188 -4.550781 98.394531 0.847656 85.90625 2.546875 C 94.476562 4.234375 107.765625 7.75 125.765625 13.09375 C 143.765625 18.445312 152.816406 21.125 152.921875 21.125 C 168.160156 25.351562 182.820312 27.46875 196.90625 27.46875 C 204.957031 27.46875 212.898438 26.675781 220.734375 25.09375 C 231.953125 22.96875 240.472656 19.050781 246.296875 13.34375 L 246.921875 14.140625 C 244.066406 18.691406 238.191406 23.1875 229.296875 27.625 Z M 229.296875 27.625 "/></g></g></g><path stroke-linecap="butt" transform="matrix(0.75, 0, 0, 0.75, 134.71958, 136.062485)" fill="none" stroke-linejoin="miter" d="M 98.582234 163.463572 C 90.827025 173.625031 86.952025 184.604198 86.952025 196.401074 C 86.952025 210.421908 92.847858 221.307326 104.644734 229.062534 C 111.493693 233.687535 119.28536 236.000035 128.024944 236.000035 C 136.764528 236.000035 144.337445 234.270868 150.743695 230.812535 C 162.832238 224.546909 169.623905 214.0417 171.118697 199.296907 C 171.26453 198.239616 171.337447 197.182324 171.337447 196.125032 C 171.337447 190.63024 169.806197 184.677115 166.748905 178.265656 C 163.691613 171.859406 158.717654 165.958364 151.837445 160.567738 L 111.582234 128.83857 C 102.769734 121.953152 98.363484 113.067735 98.363484 102.182318 C 98.363484 91.2969 101.863484 82.083358 108.853068 74.546899 C 115.87911 67.005232 125.363485 63.239607 137.311403 63.239607 C 143.280153 63.239607 149.764529 63.984399 156.754112 65.47919 L 165.712446 65.47919 L 166.149946 93.005234 L 163.910363 93.005234 C 163.76453 85.869817 161.196821 80.244816 156.207237 76.130233 C 151.217654 72.015649 144.957237 69.958357 137.415569 69.958357 C 129.879111 69.958357 123.582235 72.468774 118.519735 77.494816 C 113.457235 82.4844 110.925984 88.89065 110.925984 96.718776 C 110.925984 104.546901 114.207235 111.067735 120.759318 116.276069 L 162.160363 148.937529 C 178.545781 161.93753 186.738489 177.593781 186.738489 195.911491 C 186.738489 209.63545 181.295781 221.432326 170.410363 231.302118 C 161.014529 239.786493 148.488487 244.026077 132.832236 244.026077 C 123.290569 244.026077 114.78536 242.244827 107.321818 238.677118 C 93.306192 232.083368 84.873899 220.890659 82.035358 205.083366 C 81.597857 202.718783 81.379107 199.713574 81.379107 196.072949 C 81.379107 192.395865 82.415566 187.390657 84.493691 181.052115 C 86.603066 174.718781 90.644733 168.34378 96.618692 161.93753 Z M 98.582234 163.463572 " stroke="#ef5e04" stroke-width="16.779449" stroke-opacity="1" stroke-miterlimit="4"/><g fill="#d80356" fill-opacity="1"><g transform="translate(188.707857, 303.312474)"><g><path d="M 19.96875 -44.640625 C 14.15625 -37.023438 11.25 -28.800781 11.25 -19.96875 C 11.25 -9.445312 15.664062 -1.28125 24.5 4.53125 C 29.644531 8 35.488281 9.734375 42.03125 9.734375 C 48.570312 9.734375 54.25 8.445312 59.0625 5.875 C 68.125 1.175781 73.210938 -6.707031 74.328125 -17.78125 C 74.441406 -18.570312 74.5 -19.359375 74.5 -20.140625 C 74.5 -24.273438 73.351562 -28.75 71.0625 -33.5625 C 68.769531 -38.375 65.050781 -42.789062 59.90625 -46.8125 L 29.703125 -70.640625 C 23.097656 -75.785156 19.796875 -82.441406 19.796875 -90.609375 C 19.796875 -98.773438 22.425781 -105.679688 27.6875 -111.328125 C 32.945312 -116.984375 40.050781 -119.8125 49 -119.8125 C 53.46875 -119.8125 58.332031 -119.25 63.59375 -118.125 L 70.3125 -118.125 L 70.640625 -97.484375 L 68.96875 -97.484375 C 68.851562 -102.859375 66.921875 -107.082031 63.171875 -110.15625 C 59.421875 -113.226562 54.722656 -114.765625 49.078125 -114.765625 C 43.429688 -114.765625 38.707031 -112.890625 34.90625 -109.140625 C 31.101562 -105.398438 29.203125 -100.59375 29.203125 -94.71875 C 29.203125 -88.84375 31.660156 -83.953125 36.578125 -80.046875 L 67.625 -55.546875 C 79.925781 -45.804688 86.078125 -34.054688 86.078125 -20.296875 C 86.078125 -10.003906 81.992188 -1.171875 73.828125 6.203125 C 66.785156 12.578125 57.390625 15.765625 45.640625 15.765625 C 38.484375 15.765625 32.109375 14.425781 26.515625 11.75 C 15.992188 6.820312 9.671875 -1.566406 7.546875 -13.421875 C 7.210938 -15.210938 7.046875 -17.476562 7.046875 -20.21875 C 7.046875 -22.957031 7.828125 -26.703125 9.390625 -31.453125 C 10.960938 -36.210938 13.984375 -41 18.453125 -45.8125 Z M 19.96875 -44.640625 "/></g></g></g></svg>