<svg xmlns="http://www.w3.org/2000/svg" xmlns:xlink="http://www.w3.org/1999/xlink" width="500" zoomAndPan="magnify" viewBox="0 0 375 374.999991" height="500" preserveAspectRatio="xMidYMid meet" version="1.0"><defs><g/><clipPath id="39c5f769db"><path d="M 165.816406 0 L 213.816406 0 L 213.816406 375 L 165.816406 375 Z M 165.816406 0 " clip-rule="nonzero"/></clipPath></defs><rect x="-37.5" width="450" fill="#ffffff" y="-37.499999" height="449.999989" fill-opacity="1"/><rect x="-37.5" width="450" fill="#ffffff" y="-37.499999" height="449.999989" fill-opacity="1"/><g fill="#d80356" fill-opacity="1"><g transform="translate(177.948216, 335.90165)"><g><path d="M 67.253906 2.359375 C 95.101562 2.359375 122.472656 -15.574219 122.472656 -45.070312 C 122.472656 -71.738281 97.933594 -82.121094 71.738281 -92.503906 C 51.679688 -100.761719 27.375 -109.730469 27.375 -131.914062 C 27.375 -151.972656 43.65625 -163.0625 62.769531 -163.0625 C 89.671875 -163.0625 106.191406 -148.429688 114.921875 -127.902344 L 117.28125 -128.609375 L 116.339844 -155.984375 C 107.136719 -160.9375 91.796875 -166.835938 70.320312 -166.835938 C 35.632812 -166.835938 12.742188 -149.375 12.742188 -121.765625 C 12.742188 -96.75 30.441406 -86.839844 58.285156 -75.75 C 78.109375 -67.726562 107.136719 -56.871094 107.136719 -33.273438 C 107.136719 -14.160156 90.851562 -1.886719 71.972656 -1.886719 C 39.171875 -1.886719 21.238281 -22.890625 12.035156 -47.667969 L 9.4375 -47.195312 L 10.617188 -14.394531 C 21.710938 -6.371094 42.476562 2.359375 67.253906 2.359375 Z M 67.253906 2.359375 "/></g></g></g><g fill="#d80356" fill-opacity="1"><g transform="translate(30.998284, 264.650757)"><g><path d="M 144.730469 36.390625 C 155.542969 36.390625 164.484375 27.449219 174.464844 15.804688 L 172.800781 14.347656 C 167.394531 19.960938 160.742188 23.082031 151.175781 23.082031 C 134.332031 23.082031 118.113281 13.101562 101.476562 0.414062 C 131.003906 -5.824219 158.453125 -28.90625 158.453125 -72.15625 C 158.453125 -123.101562 119.984375 -147.226562 84.839844 -147.226562 C 40.757812 -147.226562 10.8125 -115.617188 10.8125 -72.988281 C 10.8125 -21.417969 49.492188 2.078125 84.839844 2.078125 C 89 2.078125 93.367188 1.664062 97.734375 1.039062 C 107.714844 14.140625 126.429688 36.390625 144.730469 36.390625 Z M 27.449219 -85.050781 C 26.199219 -118.945312 44.707031 -142.441406 76.316406 -142.441406 C 113.539062 -142.441406 140.777344 -101.894531 142.234375 -58.433594 C 143.273438 -27.242188 126.847656 -3.121094 93.574219 -3.121094 C 56.351562 -3.121094 28.90625 -43.253906 27.449219 -85.050781 Z M 27.449219 -85.050781 "/></g></g></g><g clip-path="url(#39c5f769db)"><path fill="#ffffff" d="M 165.816406 -7.589844 L 213.816406 -7.589844 L 213.816406 383.160156 L 165.816406 383.160156 Z M 165.816406 -7.589844 " fill-opacity="1" fill-rule="nonzero"/></g><g fill="#ff914d" fill-opacity="1"><g transform="translate(176.756784, 97.874811)"><g><path d="M -5.527344 20.300781 C -5.527344 22.113281 -4.035156 23.253906 -2.253906 24.714844 L -2.019531 24.453125 C -2.71875 23.78125 -3.160156 22.757812 -3.160156 21.324219 C -3.160156 18.894531 -1.929688 16.761719 -0.0585938 14.332031 C 0.820312 18.542969 4.125 22.492188 10.148438 22.492188 C 17.316406 22.492188 20.710938 16.996094 20.710938 12.050781 C 20.710938 5.851562 16.117188 1.578125 10.324219 1.578125 C 2.984375 1.578125 -0.292969 7.078125 -0.292969 12.050781 C -0.292969 12.605469 -0.261719 13.164062 -0.175781 13.746094 C -2.542969 15.386719 -5.527344 17.695312 -5.527344 20.300781 Z M 12.109375 4.621094 C 16.847656 4.300781 19.949219 6.550781 19.949219 10.53125 C 19.949219 15.589844 14.070312 19.101562 7.839844 19.539062 C 3.976562 19.800781 0.613281 18.195312 0.613281 13.71875 C 0.613281 8.746094 6.257812 5.03125 12.109375 4.621094 Z M 12.109375 4.621094 "/></g></g></g><g fill="#ff914d" fill-opacity="1"><g transform="translate(176.756784, 126.453127)"><g><path d="M -0.292969 10.792969 C -0.292969 15.0625 2.078125 18.136719 7.957031 18.136719 L 16.761719 18.136719 C 18.867188 18.136719 19.742188 18.339844 20.066406 19.304688 L 20.476562 19.304688 L 20.476562 15.386719 L 20.066406 15.386719 C 19.597656 16.90625 18.574219 17.609375 15.003906 17.609375 L 7.898438 17.609375 C 2.222656 17.609375 0.410156 14.421875 0.410156 11.964844 C 0.410156 7.984375 2.398438 5.351562 7.722656 5.351562 L 16.761719 5.351562 C 18.867188 5.351562 19.742188 5.558594 20.066406 6.523438 L 20.476562 6.523438 L 20.476562 1.082031 L 20.066406 1.082031 C 19.742188 2.046875 18.867188 2.253906 16.761719 2.253906 L 7.957031 2.253906 C 1.667969 2.253906 -0.292969 6.582031 -0.292969 10.792969 Z M -0.292969 10.792969 "/></g></g></g><g fill="#ff914d" fill-opacity="1"><g transform="translate(176.756784, 151.141196)"><g><path d="M 0 1.375 L 0 6.816406 L 0.410156 6.816406 C 0.730469 5.851562 1.609375 5.644531 3.714844 5.644531 L 16.761719 5.644531 C 18.867188 5.644531 19.742188 5.851562 20.066406 6.816406 L 20.476562 6.816406 L 20.476562 1.375 L 20.066406 1.375 C 19.742188 2.339844 18.867188 2.542969 16.761719 2.542969 L 3.714844 2.542969 C 1.609375 2.542969 0.730469 2.339844 0.410156 1.375 Z M 0 1.375 "/></g></g></g><g fill="#ff914d" fill-opacity="1"><g transform="translate(176.756784, 163.924503)"><g><path d="M -0.203125 16.261719 C -0.203125 16.761719 -0.175781 17.695312 0 18.367188 L 0.410156 18.367188 C 0.378906 18.222656 0.378906 18.078125 0.378906 17.929688 C 0.378906 16.847656 1.082031 16.527344 4.972656 14.976562 C 8.863281 13.425781 10.238281 12.78125 10.617188 9.476562 C 11.085938 13.367188 13.105469 15.210938 15.796875 15.210938 C 18.164062 15.210938 20.476562 13.894531 20.476562 7.515625 L 20.476562 1.375 L 20.066406 1.375 C 19.742188 2.339844 18.867188 2.542969 16.761719 2.542969 L 3.714844 2.542969 C 1.609375 2.542969 0.730469 2.339844 0.410156 1.375 L 0 1.375 L 0 6.816406 L 0.410156 6.816406 C 0.730469 5.851562 1.609375 5.644531 3.714844 5.644531 L 10.5 5.644531 L 10.5 7.371094 C 10.5 9.945312 9.066406 10.089844 4.796875 11.847656 C 1.375 13.25 -0.203125 13.835938 -0.203125 16.261719 Z M 10.96875 5.644531 L 19.917969 5.644531 C 19.976562 6.085938 20.007812 6.523438 20.007812 6.933594 C 20.007812 10.589844 17.460938 12.109375 15.09375 12.109375 C 12.839844 12.109375 10.96875 10.851562 10.96875 7.515625 Z M 10.96875 5.644531 "/></g></g></g><g fill="#ff914d" fill-opacity="1"><g transform="translate(176.756784, 186.594315)"><g><path d="M 0 1.375 L 0 6.816406 L 0.410156 6.816406 C 0.730469 5.851562 1.609375 5.644531 3.714844 5.644531 L 9.214844 5.644531 L 10.941406 7.3125 L 10.941406 7.839844 C 10.941406 10.472656 9.332031 10.765625 4.796875 12.605469 C 0.496094 14.363281 -0.203125 14.683594 -0.203125 17.109375 C -0.203125 17.726562 -0.175781 18.425781 0 19.101562 L 0.4375 19.101562 C 0.410156 18.925781 0.410156 18.808594 0.410156 18.660156 C 0.410156 17.726562 1.113281 17.316406 5.558594 15.589844 C 10.207031 13.777344 11.699219 12.929688 11.464844 8.539062 L 11.4375 7.808594 L 17.8125 14.039062 C 19.335938 15.53125 19.742188 16.878906 20.066406 18.046875 L 20.476562 18.046875 L 20.476562 13.453125 L 20.183594 13.453125 C 19.976562 14.710938 19.070312 14.625 17.167969 12.753906 L 9.886719 5.644531 L 16.761719 5.644531 C 18.867188 5.644531 19.742188 5.851562 20.066406 6.816406 L 20.476562 6.816406 L 20.476562 1.375 L 20.066406 1.375 C 19.742188 2.339844 18.867188 2.542969 16.761719 2.542969 L 3.714844 2.542969 C 1.609375 2.542969 0.730469 2.339844 0.410156 1.375 Z M 0 1.375 "/></g></g></g><g fill="#ff914d" fill-opacity="1"><g transform="translate(176.756784, 210.053889)"><g><path d="M 0 5.382812 L 0 10.851562 L 0.410156 10.851562 C 0.730469 9.886719 1.609375 9.683594 3.714844 9.683594 L 9.359375 9.683594 L 17.226562 14.097656 C 19.070312 15.121094 19.742188 16.085938 20.066406 16.964844 L 20.476562 16.964844 L 20.476562 13.191406 L 20.066406 13.191406 C 19.832031 14.390625 19.070312 14.539062 17.226562 13.511719 L 10.265625 9.566406 L 17.226562 5.703125 C 19.070312 4.679688 19.742188 4.09375 20.066406 5.058594 L 20.476562 5.058594 L 20.476562 -0.410156 L 20.066406 -0.410156 C 19.742188 0.261719 19.070312 1.199219 17.226562 2.195312 L 9.390625 6.523438 L 3.714844 6.550781 C 1.609375 6.550781 0.730469 6.347656 0.410156 5.382812 Z M 0 5.382812 "/></g></g></g><g fill="#ff914d" fill-opacity="1"><g transform="translate(176.756784, 231.114953)"><g><path d="M -0.292969 8.367188 C -0.292969 11.730469 1.929688 15.414062 5.9375 15.414062 C 9.449219 15.414062 10.765625 11.875 11.90625 8.890625 C 12.839844 6.550781 13.894531 3.597656 16.496094 3.597656 C 18.808594 3.597656 20.183594 5.441406 20.183594 7.78125 C 20.183594 10.617188 18.542969 13.105469 15.53125 14.304688 L 15.648438 14.625 L 19.453125 14.507812 C 20.210938 12.988281 20.679688 11.054688 20.679688 8.890625 C 20.679688 4.300781 18.425781 1.375 14.800781 1.375 C 11.40625 1.375 10.414062 3.890625 9.15625 6.902344 C 8.21875 9.242188 6.875 13.015625 4.007812 13.015625 C 1.609375 13.015625 0.320312 11.144531 0.320312 9.125 C 0.320312 5.234375 2.894531 2.632812 6.230469 1.402344 L 6.171875 1.023438 L 1.785156 1.140625 C 0.671875 2.632812 -0.292969 5.351562 -0.292969 8.367188 Z M -0.292969 8.367188 "/></g></g></g><g fill="#ff914d" fill-opacity="1"><g transform="translate(176.756784, 251.883507)"><g><path d="M 0 5.5 L 0 10.96875 L 0.410156 10.96875 C 0.730469 10.003906 1.609375 9.796875 3.714844 9.796875 L 19.949219 9.796875 L 19.949219 10.648438 C 19.949219 13.25 19.21875 14.566406 16.878906 15.648438 L 16.9375 16 L 20.476562 15.824219 L 20.476562 0.585938 L 16.9375 0.410156 L 16.878906 0.761719 C 19.21875 1.84375 19.949219 3.160156 19.949219 5.761719 L 19.949219 6.667969 L 3.714844 6.667969 C 1.609375 6.667969 0.730469 6.464844 0.410156 5.5 Z M 0 5.5 "/></g></g></g><g fill="#ff914d" fill-opacity="1"><g transform="translate(176.756784, 272.856818)"><g><path d="M 0 5.382812 L 0 10.851562 L 0.410156 10.851562 C 0.730469 9.886719 1.609375 9.683594 3.714844 9.683594 L 9.359375 9.683594 L 17.226562 14.097656 C 19.070312 15.121094 19.742188 16.085938 20.066406 16.964844 L 20.476562 16.964844 L 20.476562 13.191406 L 20.066406 13.191406 C 19.832031 14.390625 19.070312 14.539062 17.226562 13.511719 L 10.265625 9.566406 L 17.226562 5.703125 C 19.070312 4.679688 19.742188 4.09375 20.066406 5.058594 L 20.476562 5.058594 L 20.476562 -0.410156 L 20.066406 -0.410156 C 19.742188 0.261719 19.070312 1.199219 17.226562 2.195312 L 9.390625 6.523438 L 3.714844 6.550781 C 1.609375 6.550781 0.730469 6.347656 0.410156 5.382812 Z M 0 5.382812 "/></g></g></g><g fill="#ff914d" fill-opacity="1"><g transform="translate(176.756784, 293.917882)"><g><path d="M 0 1.375 L 0 15.296875 L 3.683594 15.53125 L 3.742188 15.152344 C 1.226562 13.980469 0.527344 12.460938 0.527344 9.507812 L 0.527344 7.109375 C 0.527344 6.171875 1.054688 5.644531 1.988281 5.644531 L 16.761719 5.644531 C 18.867188 5.644531 19.742188 5.851562 20.066406 6.816406 L 20.476562 6.816406 L 20.476562 1.375 L 20.066406 1.375 C 19.742188 2.339844 18.867188 2.542969 16.761719 2.542969 L 3.714844 2.542969 C 1.609375 2.542969 0.730469 2.339844 0.410156 1.375 Z M 0 1.375 "/></g></g></g><g fill="#ff914d" fill-opacity="1"><g transform="translate(176.756784, 314.569454)"><g><path d="M 0 1.375 L 0 16.175781 L 4.269531 16.378906 L 4.328125 16 C 1.34375 14.886719 0.46875 12.871094 0.46875 9.914062 L 0.46875 7.109375 C 0.46875 6.171875 0.996094 5.644531 1.929688 5.644531 L 10.765625 5.644531 L 10.765625 8.453125 C 10.765625 12.023438 10.0625 13.046875 8.539062 13.511719 L 8.539062 13.921875 L 13.453125 13.921875 L 13.453125 13.511719 C 11.933594 13.046875 11.230469 12.023438 11.230469 8.453125 L 11.230469 5.644531 L 20.007812 5.644531 L 20.007812 9.066406 C 20.007812 12.34375 19.128906 14.1875 16.261719 15.355469 L 16.351562 15.738281 L 20.476562 15.414062 L 20.476562 1.375 L 20.066406 1.375 C 19.742188 2.339844 18.867188 2.542969 16.761719 2.542969 L 3.714844 2.542969 C 1.609375 2.542969 0.730469 2.339844 0.410156 1.375 Z M 0 1.375 "/></g></g></g><g fill="#ff914d" fill-opacity="1"><g transform="translate(176.756784, 336.566508)"><g><path d="M -0.292969 8.367188 C -0.292969 11.730469 1.929688 15.414062 5.9375 15.414062 C 9.449219 15.414062 10.765625 11.875 11.90625 8.890625 C 12.839844 6.550781 13.894531 3.597656 16.496094 3.597656 C 18.808594 3.597656 20.183594 5.441406 20.183594 7.78125 C 20.183594 10.617188 18.542969 13.105469 15.53125 14.304688 L 15.648438 14.625 L 19.453125 14.507812 C 20.210938 12.988281 20.679688 11.054688 20.679688 8.890625 C 20.679688 4.300781 18.425781 1.375 14.800781 1.375 C 11.40625 1.375 10.414062 3.890625 9.15625 6.902344 C 8.21875 9.242188 6.875 13.015625 4.007812 13.015625 C 1.609375 13.015625 0.320312 11.144531 0.320312 9.125 C 0.320312 5.234375 2.894531 2.632812 6.230469 1.402344 L 6.171875 1.023438 L 1.785156 1.140625 C 0.671875 2.632812 -0.292969 5.351562 -0.292969 8.367188 Z M -0.292969 8.367188 "/></g></g></g></svg>