<svg xmlns="http://www.w3.org/2000/svg" xmlns:xlink="http://www.w3.org/1999/xlink" width="1728" zoomAndPan="magnify" viewBox="0 0 1296 1727.999927" height="2304" preserveAspectRatio="xMidYMid meet" version="1.0"><defs><g/><clipPath id="941bae3fb6"><path d="M 0 0 L 1296 0 L 1296 918.535156 L 0 918.535156 Z M 0 0 " clip-rule="nonzero"/></clipPath><clipPath id="69e6a7bc13"><path d="M 622.871094 1671.144531 L 1238.621094 1671.144531 L 1238.621094 1709.394531 L 622.871094 1709.394531 Z M 622.871094 1671.144531 " clip-rule="nonzero"/></clipPath><clipPath id="f3261374b6"><path d="M 533.125 1093.097656 L 1007.246094 1093.097656 L 1007.246094 1227.292969 L 533.125 1227.292969 Z M 533.125 1093.097656 " clip-rule="nonzero"/></clipPath><clipPath id="40d619bcb9"><path d="M 524.730469 1084.699219 L 1015.644531 1084.699219 L 1015.644531 1101.492188 L 524.730469 1101.492188 Z M 998.851562 1101.492188 L 1015.644531 1101.492188 L 1015.644531 1218.894531 L 998.851562 1218.894531 Z M 524.730469 1101.492188 L 541.523438 1101.492188 L 541.523438 1218.894531 L 524.730469 1218.894531 Z M 524.730469 1218.894531 L 1015.644531 1218.894531 L 1015.644531 1235.6875 L 524.730469 1235.6875 Z M 524.730469 1218.894531 " clip-rule="nonzero"/></clipPath><clipPath id="f5e95e63e5"><path d="M 70.136719 1307.535156 L 124.886719 1307.535156 L 124.886719 1402 L 70.136719 1402 Z M 70.136719 1307.535156 " clip-rule="nonzero"/></clipPath><clipPath id="e3b8661e45"><path d="M 132.214844 1307.535156 L 186.964844 1307.535156 L 186.964844 1402 L 132.214844 1402 Z M 132.214844 1307.535156 " clip-rule="nonzero"/></clipPath></defs><rect x="-129.6" width="1555.2" fill="#ffffff" y="-172.799993" height="2073.599912" fill-opacity="1"/><rect x="-129.6" width="1555.2" fill="#000000" y="-172.799993" height="2073.599912" fill-opacity="1"/><g clip-path="url(#941bae3fb6)"><path fill="#291313" d="M -47.203125 -90.296875 L 1371.46875 -90.296875 L 1371.46875 918.535156 L -47.203125 918.535156 Z M -47.203125 -90.296875 " fill-opacity="1" fill-rule="nonzero"/></g><g fill="#ffffff" fill-opacity="1"><g transform="translate(161.073134, 390.00507)"><g><path d="M 46.03125 -3.671875 C 46.394531 -3.671875 46.578125 -3.425781 46.578125 -2.9375 L 46.578125 -0.734375 C 46.578125 -0.242188 46.394531 0 46.03125 0 L 3.125 0 C 2.632812 0 2.390625 -0.242188 2.390625 -0.734375 L 2.390625 -2.9375 C 2.390625 -3.425781 2.632812 -3.671875 3.125 -3.671875 C 13.164062 -3.671875 18.617188 -7.988281 19.484375 -16.625 C 19.722656 -19.132812 19.976562 -23.316406 20.25 -29.171875 C 20.53125 -35.023438 21.34375 -47.613281 22.6875 -66.9375 C 24.039062 -86.257812 24.71875 -101.894531 24.71875 -113.84375 L 24.71875 -117.234375 C 24.71875 -119.691406 23.320312 -121.742188 20.53125 -123.390625 C 17.75 -125.046875 15.710938 -125.875 14.421875 -125.875 C 13.140625 -125.875 12.5 -126.117188 12.5 -126.609375 L 12.5 -128.8125 C 12.5 -129.300781 12.742188 -129.546875 13.234375 -129.546875 L 39.78125 -129.546875 C 40.945312 -129.367188 41.894531 -128.695312 42.625 -127.53125 L 85.71875 -31.515625 C 86.03125 -31.085938 86.273438 -30.71875 86.453125 -30.40625 C 86.640625 -30.101562 87.097656 -29.96875 87.828125 -30 C 88.566406 -30.03125 89.117188 -30.566406 89.484375 -31.609375 L 132.125 -125.875 C 133.40625 -128.320312 134.566406 -129.546875 135.609375 -129.546875 L 162.359375 -129.546875 C 162.847656 -129.546875 163.09375 -129.300781 163.09375 -128.8125 L 163.09375 -126.609375 C 163.09375 -126.117188 162.9375 -125.875 162.625 -125.875 C 160.789062 -125.875 158.523438 -125.265625 155.828125 -124.046875 C 151.722656 -122.203125 149.671875 -119.472656 149.671875 -115.859375 L 155.1875 -14.328125 C 155.3125 -11.148438 156.960938 -8.578125 160.140625 -6.609375 C 163.328125 -4.648438 167.492188 -3.671875 172.640625 -3.671875 C 173.128906 -3.671875 173.375 -3.425781 173.375 -2.9375 L 173.375 -0.734375 C 173.375 -0.242188 173.128906 0 172.640625 0 L 120.453125 0 C 119.960938 0 119.71875 -0.242188 119.71875 -0.734375 L 119.71875 -2.9375 C 119.71875 -3.425781 119.960938 -3.671875 120.453125 -3.671875 C 131.421875 -3.671875 136.90625 -6.335938 136.90625 -11.671875 L 132.03125 -99.421875 C 131.96875 -100.023438 131.796875 -100.328125 131.515625 -100.328125 C 131.242188 -100.328125 131.019531 -100.050781 130.84375 -99.5 L 85.171875 -0.640625 C 84.929688 -0.210938 84.226562 0 83.0625 0 C 81.894531 0 81.21875 -0.242188 81.03125 -0.734375 L 36.015625 -99.78125 C 35.648438 -100.632812 35.296875 -101.0625 34.953125 -101.0625 C 34.617188 -101.0625 34.453125 -100.390625 34.453125 -99.046875 C 34.453125 -96.234375 33.71875 -82.941406 32.25 -59.171875 C 30.78125 -35.398438 30.046875 -20.578125 30.046875 -14.703125 L 30.046875 -10.9375 C 30.773438 -7.445312 34.234375 -5.179688 40.421875 -4.140625 C 42.203125 -3.828125 44.070312 -3.671875 46.03125 -3.671875 Z M 46.03125 -3.671875 "/></g></g></g><g fill="#ffffff" fill-opacity="1"><g transform="translate(344.523365, 390.00507)"><g><path d="M 0.640625 -0.734375 L 0.640625 -3.3125 C 0.640625 -3.800781 0.882812 -4.046875 1.375 -4.046875 L 3.40625 -4.046875 C 5.976562 -4.222656 8.609375 -4.328125 11.296875 -4.359375 C 13.992188 -4.390625 16.445312 -4.710938 18.65625 -5.328125 C 23.675781 -6.796875 26.1875 -10.472656 26.1875 -16.359375 L 26.1875 -113.203125 C 26.1875 -119.265625 22.601562 -123.125 15.4375 -124.78125 C 13.414062 -125.207031 11.363281 -125.570312 9.28125 -125.875 L 7.34375 -125.875 C 6.851562 -125.875 6.609375 -126.117188 6.609375 -126.609375 L 6.609375 -128.8125 C 6.609375 -129.300781 6.851562 -129.546875 7.34375 -129.546875 L 94.734375 -129.546875 C 95.835938 -129.546875 96.632812 -129.347656 97.125 -128.953125 C 97.613281 -128.554688 97.914062 -127.6875 98.03125 -126.34375 L 99.6875 -99.6875 C 99.6875 -99.070312 99.226562 -98.765625 98.3125 -98.765625 C 97.394531 -98.765625 96.722656 -99.039062 96.296875 -99.59375 C 95.921875 -100.207031 95.441406 -102.441406 94.859375 -106.296875 C 94.285156 -110.160156 93.234375 -113.378906 91.703125 -115.953125 C 90.171875 -118.523438 87.472656 -120.148438 83.609375 -120.828125 L 45.296875 -120.828125 C 44.503906 -120.828125 44.109375 -120.425781 44.109375 -119.625 L 44.109375 -72.125 C 44.109375 -71.507812 44.410156 -71.203125 45.015625 -71.203125 L 76.8125 -71.203125 C 85.019531 -71.203125 89.125 -75.984375 89.125 -85.546875 C 89.125 -86.035156 89.367188 -86.28125 89.859375 -86.28125 L 92.0625 -86.28125 C 92.550781 -86.28125 92.796875 -86.035156 92.796875 -85.546875 L 92.796875 -46.21875 C 92.796875 -45.726562 92.550781 -45.484375 92.0625 -45.484375 L 89.859375 -45.484375 C 89.367188 -45.484375 89.125 -45.726562 89.125 -46.21875 C 89.125 -55.28125 86.488281 -60.515625 81.21875 -61.921875 C 79.75 -62.296875 78.1875 -62.484375 76.53125 -62.484375 L 45.015625 -62.484375 C 44.410156 -62.484375 44.109375 -62.175781 44.109375 -61.5625 L 44.109375 -16.8125 C 44.109375 -12.21875 46.21875 -9.613281 50.4375 -9 C 51.664062 -8.820312 52.953125 -8.734375 54.296875 -8.734375 L 84.890625 -8.734375 C 91.203125 -8.734375 96.101562 -11.519531 99.59375 -17.09375 C 102.101562 -21.070312 103.632812 -25.632812 104.1875 -30.78125 C 104.375 -32.5 105.296875 -33.359375 106.953125 -33.359375 C 107.679688 -33.359375 108.046875 -32.957031 108.046875 -32.15625 L 105.015625 -1.28125 C 104.648438 -0.425781 104.222656 0 103.734375 0 L 1.375 0 C 0.882812 0 0.640625 -0.242188 0.640625 -0.734375 Z M 0.640625 -0.734375 "/></g></g></g><g fill="#ffffff" fill-opacity="1"><g transform="translate(466.872183, 390.00507)"><g><path d="M 6.25 0 C 5.757812 0 5.515625 -0.242188 5.515625 -0.734375 L 5.515625 -2.9375 C 5.515625 -3.425781 5.820312 -3.671875 6.4375 -3.671875 L 8.546875 -3.671875 C 11.910156 -3.671875 14.207031 -3.976562 15.4375 -4.59375 C 19.96875 -6.800781 22.234375 -12.863281 22.234375 -22.78125 L 22.234375 -118.25 C 22.234375 -122.351562 18.253906 -124.800781 10.296875 -125.59375 C 8.515625 -125.78125 7.269531 -125.875 6.5625 -125.875 C 5.863281 -125.875 5.515625 -126.117188 5.515625 -126.609375 L 5.515625 -128.8125 C 5.515625 -129.300781 5.757812 -129.546875 6.25 -129.546875 L 39.875 -129.546875 L 127.078125 -33.171875 C 127.378906 -32.859375 127.585938 -32.625 127.703125 -32.46875 C 127.828125 -32.320312 128.023438 -32.25 128.296875 -32.25 C 128.578125 -32.25 128.71875 -32.523438 128.71875 -33.078125 L 128.71875 -96.390625 C 128.71875 -108.578125 127.707031 -116.535156 125.6875 -120.265625 C 123.664062 -124.003906 119.59375 -125.875 113.46875 -125.875 L 108.78125 -125.875 C 108.289062 -125.875 108.046875 -126.117188 108.046875 -126.609375 L 108.046875 -128.8125 C 108.046875 -129.300781 108.289062 -129.546875 108.78125 -129.546875 L 156.5625 -129.546875 C 157.050781 -129.546875 157.296875 -129.300781 157.296875 -128.8125 L 157.296875 -126.609375 C 157.296875 -126.117188 156.390625 -125.875 154.578125 -125.875 C 152.773438 -125.875 149.804688 -124.832031 145.671875 -122.75 C 141.535156 -120.664062 139.46875 -118.09375 139.46875 -115.03125 L 139.46875 -2.671875 C 139.46875 -1.316406 139.285156 -0.347656 138.921875 0.234375 C 138.554688 0.816406 137.679688 1.109375 136.296875 1.109375 C 134.921875 1.109375 133.894531 0.832031 133.21875 0.28125 C 132.550781 -0.269531 131.757812 -1.066406 130.84375 -2.109375 L 36.109375 -107.140625 C 35.492188 -107.742188 34.941406 -108.046875 34.453125 -108.046875 C 34.148438 -108.046875 34 -107.742188 34 -107.140625 L 34 -15.4375 C 34 -9.863281 38.410156 -6.1875 47.234375 -4.40625 C 49.679688 -3.914062 51.546875 -3.671875 52.828125 -3.671875 C 54.117188 -3.671875 54.765625 -3.425781 54.765625 -2.9375 L 54.765625 -0.734375 C 54.765625 -0.242188 54.519531 0 54.03125 0 Z M 6.25 0 "/></g></g></g><g fill="#ffffff" fill-opacity="1"><g transform="translate(633.599933, 390.00507)"><g><path d="M 17.921875 -74.796875 C 17.609375 -79.015625 16.519531 -87.359375 14.65625 -99.828125 C 12.789062 -112.296875 11.859375 -119.597656 11.859375 -121.734375 C 11.859375 -123.878906 12.894531 -125.71875 14.96875 -127.25 C 17.050781 -128.78125 19.253906 -129.546875 21.578125 -129.546875 C 23.910156 -129.546875 26.070312 -128.78125 28.0625 -127.25 C 30.0625 -125.71875 31.0625 -123.941406 31.0625 -121.921875 C 31.0625 -119.898438 30.8125 -116.988281 30.3125 -113.1875 C 29.820312 -109.394531 29.238281 -105.265625 28.5625 -100.796875 C 27.894531 -96.328125 27.207031 -91.789062 26.5 -87.1875 C 25.800781 -82.59375 25.238281 -78.460938 24.8125 -74.796875 Z M 17.921875 -74.796875 "/></g></g></g><g fill="#ffffff" fill-opacity="1"><g transform="translate(682.535163, 390.00507)"><g><path d="M 77.546875 -128.453125 C 78.160156 -128.453125 78.46875 -127.773438 78.46875 -126.421875 L 80.859375 -106.859375 C 81.097656 -105.628906 81.21875 -104.847656 81.21875 -104.515625 C 81.21875 -104.179688 80.742188 -104.015625 79.796875 -104.015625 C 78.847656 -104.015625 78.25 -104.132812 78 -104.375 C 77.757812 -104.625 77.515625 -105.035156 77.265625 -105.609375 C 77.023438 -106.191406 76.734375 -106.847656 76.390625 -107.578125 C 76.054688 -108.316406 75.707031 -109.054688 75.34375 -109.796875 C 74.050781 -112.617188 72.03125 -115.40625 69.28125 -118.15625 C 62.539062 -124.644531 54.941406 -127.890625 46.484375 -127.890625 C 41.398438 -127.890625 36.59375 -126.234375 32.0625 -122.921875 C 27.53125 -119.617188 25.265625 -115.71875 25.265625 -111.21875 C 25.265625 -106.71875 26.109375 -102.8125 27.796875 -99.5 C 29.484375 -96.195312 31.703125 -93.132812 34.453125 -90.3125 C 37.210938 -87.5 40.367188 -84.804688 43.921875 -82.234375 C 47.472656 -79.660156 51.085938 -77.054688 54.765625 -74.421875 C 64.503906 -67.617188 71.425781 -61.800781 75.53125 -56.96875 C 81.957031 -49.488281 85.445312 -41.097656 86 -31.796875 C 86 -21.378906 82 -13.0625 74 -6.84375 C 66.007812 -0.625 56.71875 2.484375 46.125 2.484375 C 39.320312 2.484375 33.914062 1.789062 29.90625 0.40625 C 25.894531 -0.96875 23.125 -1.957031 21.59375 -2.5625 C 20.0625 -3.175781 18.941406 -3.484375 18.234375 -3.484375 C 17.535156 -3.484375 17.09375 -3.457031 16.90625 -3.40625 L 12.40625 -2.484375 C 11.601562 -2.484375 11.113281 -3.125 10.9375 -4.40625 C 9.15625 -19.601562 8.265625 -27.675781 8.265625 -28.625 C 8.265625 -29.570312 8.34375 -30.210938 8.5 -30.546875 C 8.65625 -30.890625 9.066406 -31.0625 9.734375 -31.0625 C 11.453125 -31.0625 13.015625 -28.609375 14.421875 -23.703125 C 20.859375 -9.921875 31.546875 -3.03125 46.484375 -3.03125 C 53.347656 -3.03125 59.210938 -5.113281 64.078125 -9.28125 C 68.953125 -13.445312 71.390625 -18.867188 71.390625 -25.546875 C 71.390625 -36.203125 65.019531 -46.125 52.28125 -55.3125 C 48.664062 -57.882812 43.457031 -61.46875 36.65625 -66.0625 C 29.863281 -70.65625 24.441406 -75.25 20.390625 -79.84375 C 14.085938 -86.945312 10.9375 -94.863281 10.9375 -103.59375 C 10.9375 -112.320312 14.410156 -119.472656 21.359375 -125.046875 C 28.316406 -130.617188 36.296875 -133.40625 45.296875 -133.40625 C 49.953125 -133.40625 55.082031 -132.609375 60.6875 -131.015625 C 66.289062 -129.429688 70.195312 -128.363281 72.40625 -127.8125 Z M 77.546875 -128.453125 "/></g></g></g><g fill="#ffffff" fill-opacity="1"><g transform="translate(161.073134, 622.982371)"><g><path d="M 78.828125 -74.328125 C 87.035156 -74.328125 91.140625 -78.34375 91.140625 -86.375 C 91.140625 -86.863281 91.382812 -87.109375 91.875 -87.109375 L 94.09375 -87.109375 C 94.582031 -87.109375 94.828125 -86.863281 94.828125 -86.375 L 94.828125 -52.1875 C 94.828125 -51.695312 94.582031 -51.453125 94.09375 -51.453125 L 91.875 -51.453125 C 91.382812 -51.453125 91.140625 -51.695312 91.140625 -52.1875 C 91.140625 -57.820312 89.550781 -61.710938 86.375 -63.859375 C 84.65625 -65.023438 82.203125 -65.609375 79.015625 -65.609375 L 42.8125 -65.609375 C 41.34375 -65.609375 40.609375 -64.78125 40.609375 -63.125 L 40.609375 -15.890625 C 40.609375 -11.722656 43.101562 -8.644531 48.09375 -6.65625 C 53.09375 -4.664062 56.25 -3.671875 57.5625 -3.671875 C 58.875 -3.671875 59.53125 -3.425781 59.53125 -2.9375 L 59.53125 -0.734375 C 59.53125 -0.242188 59.285156 0 58.796875 0 L 8.640625 0 C 8.148438 0 7.90625 -0.242188 7.90625 -0.734375 L 7.90625 -2.9375 C 7.90625 -3.425781 8.425781 -3.671875 9.46875 -3.671875 C 10.507812 -3.671875 12.128906 -4.160156 14.328125 -5.140625 C 16.535156 -6.117188 18.476562 -7.570312 20.15625 -9.5 C 21.84375 -11.4375 22.6875 -13.78125 22.6875 -16.53125 L 22.6875 -115.765625 C 22.6875 -119.742188 20.578125 -122.59375 16.359375 -124.3125 C 13.898438 -125.351562 11.476562 -125.875 9.09375 -125.875 L 8.734375 -125.875 C 8.242188 -125.875 8 -126.117188 8 -126.609375 L 8 -128.8125 C 8 -129.300781 8.242188 -129.546875 8.734375 -129.546875 L 95.375 -129.546875 C 96.101562 -129.429688 96.648438 -129.265625 97.015625 -129.046875 C 97.390625 -128.828125 97.578125 -128.289062 97.578125 -127.4375 L 97.578125 -105.203125 C 97.578125 -104.460938 97.46875 -104 97.25 -103.8125 C 97.039062 -103.632812 96.660156 -103.546875 96.109375 -103.546875 L 95 -103.546875 C 94.882812 -103.609375 94.472656 -105.273438 93.765625 -108.546875 C 93.054688 -111.828125 91.96875 -114.359375 90.5 -116.140625 C 87.988281 -118.835938 85.140625 -120.335938 81.953125 -120.640625 C 80.671875 -120.765625 79.109375 -120.828125 77.265625 -120.828125 L 42.453125 -120.828125 C 41.222656 -120.828125 40.609375 -120.210938 40.609375 -118.984375 L 40.609375 -76.4375 C 40.609375 -75.03125 41.34375 -74.328125 42.8125 -74.328125 Z M 78.828125 -74.328125 "/></g></g></g><g fill="#ffffff" fill-opacity="1"><g transform="translate(274.509415, 622.982371)"><g><path d="M 48.875 -0.734375 C 48.875 -0.242188 48.628906 0 48.140625 0 L 1.1875 0 C 0.695312 0 0.453125 -0.242188 0.453125 -0.734375 L 0.453125 -2.9375 C 0.453125 -3.425781 0.851562 -3.671875 1.65625 -3.671875 C 10.039062 -4.035156 15.707031 -8.507812 18.65625 -17.09375 L 56.140625 -125.59375 C 56.203125 -125.71875 56.234375 -125.875 56.234375 -126.0625 L 55.21875 -129.09375 C 55.21875 -129.394531 55.34375 -129.546875 55.59375 -129.546875 L 73.96875 -129.546875 C 74.082031 -129.484375 74.25 -129.421875 74.46875 -129.359375 C 74.6875 -129.304688 74.851562 -129.125 74.96875 -128.8125 L 113.84375 -19.75 C 114.695312 -18.101562 115.382812 -16.601562 115.90625 -15.25 C 116.425781 -13.90625 117.023438 -12.679688 117.703125 -11.578125 C 119.171875 -9.066406 121.585938 -7.132812 124.953125 -5.78125 C 127.773438 -4.375 130.347656 -3.671875 132.671875 -3.671875 C 133.160156 -3.671875 133.40625 -3.394531 133.40625 -2.84375 L 133.40625 -0.734375 C 133.40625 -0.242188 133.160156 0 132.671875 0 L 76.4375 0 C 75.945312 0 75.703125 -0.242188 75.703125 -0.734375 L 75.703125 -2.9375 C 75.703125 -3.425781 76.835938 -3.734375 79.109375 -3.859375 C 81.378906 -3.984375 83.25 -4.101562 84.71875 -4.21875 C 93.226562 -5.144531 97.484375 -8.023438 97.484375 -12.859375 C 97.484375 -13.234375 97.421875 -13.664062 97.296875 -14.15625 L 83.421875 -53.296875 C 83.359375 -53.410156 83.238281 -53.6875 83.0625 -54.125 C 82.320312 -56.195312 81.035156 -57.234375 79.203125 -57.234375 L 46.578125 -57.234375 C 44.742188 -57.234375 43.304688 -56.222656 42.265625 -54.203125 C 42.078125 -53.773438 41.984375 -53.53125 41.984375 -53.46875 L 28.203125 -13.140625 L 28.203125 -12.3125 C 28.203125 -10.71875 29.03125 -9.28125 30.6875 -8 C 34.425781 -5.113281 39.445312 -3.671875 45.75 -3.671875 L 48.140625 -3.671875 C 48.628906 -3.671875 48.875 -3.425781 48.875 -2.9375 Z M 76.078125 -67.4375 C 77.179688 -67.4375 77.734375 -67.894531 77.734375 -68.8125 C 77.734375 -69.300781 77.609375 -69.851562 77.359375 -70.46875 L 63.671875 -108.140625 C 63.054688 -109.796875 62.597656 -110.625 62.296875 -110.625 C 61.984375 -110.625 61.492188 -109.765625 60.828125 -108.046875 L 47.96875 -70.46875 C 47.71875 -69.851562 47.59375 -69.191406 47.59375 -68.484375 C 47.59375 -67.785156 48.050781 -67.4375 48.96875 -67.4375 Z M 76.078125 -67.4375 "/></g></g></g><g fill="#ffffff" fill-opacity="1"><g transform="translate(414.591423, 622.982371)"><g><path d="M 77.546875 -128.453125 C 78.160156 -128.453125 78.46875 -127.773438 78.46875 -126.421875 L 80.859375 -106.859375 C 81.097656 -105.628906 81.21875 -104.847656 81.21875 -104.515625 C 81.21875 -104.179688 80.742188 -104.015625 79.796875 -104.015625 C 78.847656 -104.015625 78.25 -104.132812 78 -104.375 C 77.757812 -104.625 77.515625 -105.035156 77.265625 -105.609375 C 77.023438 -106.191406 76.734375 -106.847656 76.390625 -107.578125 C 76.054688 -108.316406 75.707031 -109.054688 75.34375 -109.796875 C 74.050781 -112.617188 72.03125 -115.40625 69.28125 -118.15625 C 62.539062 -124.644531 54.941406 -127.890625 46.484375 -127.890625 C 41.398438 -127.890625 36.59375 -126.234375 32.0625 -122.921875 C 27.53125 -119.617188 25.265625 -115.71875 25.265625 -111.21875 C 25.265625 -106.71875 26.109375 -102.8125 27.796875 -99.5 C 29.484375 -96.195312 31.703125 -93.132812 34.453125 -90.3125 C 37.210938 -87.5 40.367188 -84.804688 43.921875 -82.234375 C 47.472656 -79.660156 51.085938 -77.054688 54.765625 -74.421875 C 64.503906 -67.617188 71.425781 -61.800781 75.53125 -56.96875 C 81.957031 -49.488281 85.445312 -41.097656 86 -31.796875 C 86 -21.378906 82 -13.0625 74 -6.84375 C 66.007812 -0.625 56.71875 2.484375 46.125 2.484375 C 39.320312 2.484375 33.914062 1.789062 29.90625 0.40625 C 25.894531 -0.96875 23.125 -1.957031 21.59375 -2.5625 C 20.0625 -3.175781 18.941406 -3.484375 18.234375 -3.484375 C 17.535156 -3.484375 17.09375 -3.457031 16.90625 -3.40625 L 12.40625 -2.484375 C 11.601562 -2.484375 11.113281 -3.125 10.9375 -4.40625 C 9.15625 -19.601562 8.265625 -27.675781 8.265625 -28.625 C 8.265625 -29.570312 8.34375 -30.210938 8.5 -30.546875 C 8.65625 -30.890625 9.066406 -31.0625 9.734375 -31.0625 C 11.453125 -31.0625 13.015625 -28.609375 14.421875 -23.703125 C 20.859375 -9.921875 31.546875 -3.03125 46.484375 -3.03125 C 53.347656 -3.03125 59.210938 -5.113281 64.078125 -9.28125 C 68.953125 -13.445312 71.390625 -18.867188 71.390625 -25.546875 C 71.390625 -36.203125 65.019531 -46.125 52.28125 -55.3125 C 48.664062 -57.882812 43.457031 -61.46875 36.65625 -66.0625 C 29.863281 -70.65625 24.441406 -75.25 20.390625 -79.84375 C 14.085938 -86.945312 10.9375 -94.863281 10.9375 -103.59375 C 10.9375 -112.320312 14.410156 -119.472656 21.359375 -125.046875 C 28.316406 -130.617188 36.296875 -133.40625 45.296875 -133.40625 C 49.953125 -133.40625 55.082031 -132.609375 60.6875 -131.015625 C 66.289062 -129.429688 70.195312 -128.363281 72.40625 -127.8125 Z M 77.546875 -128.453125 "/></g></g></g><g fill="#ffffff" fill-opacity="1"><g transform="translate(515.072376, 622.982371)"><g><path d="M 133.875 -16.625 C 133.875 -8.351562 139.597656 -4.035156 151.046875 -3.671875 C 151.535156 -3.671875 151.78125 -3.425781 151.78125 -2.9375 L 151.78125 -0.734375 C 151.78125 -0.242188 151.535156 0 151.046875 0 L 92.609375 0 C 92.117188 0 91.875 -0.242188 91.875 -0.734375 L 91.875 -2.9375 C 91.875 -3.425781 93.40625 -3.671875 96.46875 -3.671875 C 99.53125 -3.671875 103.023438 -4.347656 106.953125 -5.703125 C 112.953125 -7.660156 115.953125 -10.96875 115.953125 -15.625 L 115.953125 -59.453125 C 115.953125 -60.054688 115.859375 -60.453125 115.671875 -60.640625 C 115.492188 -60.828125 115.097656 -60.921875 114.484375 -60.921875 L 42.078125 -60.921875 C 41.460938 -60.921875 41.0625 -60.828125 40.875 -60.640625 C 40.695312 -60.453125 40.609375 -60.054688 40.609375 -59.453125 L 40.609375 -14.703125 C 40.609375 -7.347656 46.03125 -3.671875 56.875 -3.671875 C 57.363281 -3.671875 57.609375 -3.425781 57.609375 -2.9375 L 57.609375 -0.734375 C 57.609375 -0.242188 57.394531 0 56.96875 0 L 6.25 0 C 5.757812 0 5.515625 -0.242188 5.515625 -0.734375 L 5.515625 -2.9375 C 5.515625 -3.425781 6.125 -3.671875 7.34375 -3.671875 C 17.570312 -3.671875 22.6875 -8.050781 22.6875 -16.8125 L 22.6875 -114.84375 C 22.6875 -122.007812 18.429688 -125.8125 9.921875 -126.25 C 8.640625 -126.3125 8 -126.585938 8 -127.078125 L 8 -128.8125 C 8 -129.300781 8.210938 -129.546875 8.640625 -129.546875 L 54.765625 -129.546875 C 55.253906 -129.546875 55.5 -129.300781 55.5 -128.8125 L 55.5 -127.078125 C 55.5 -126.703125 54.914062 -126.515625 53.75 -126.515625 C 44.988281 -126.515625 40.609375 -122.195312 40.609375 -113.5625 L 40.609375 -71.109375 C 40.609375 -70.503906 40.695312 -70.109375 40.875 -69.921875 C 41.0625 -69.734375 41.460938 -69.640625 42.078125 -69.640625 L 114.484375 -69.640625 C 115.097656 -69.640625 115.492188 -69.734375 115.671875 -69.921875 C 115.859375 -70.109375 115.953125 -70.503906 115.953125 -71.109375 L 115.953125 -115.03125 C 115.828125 -115.582031 115.75 -116.085938 115.71875 -116.546875 C 115.6875 -117.003906 115.582031 -117.722656 115.40625 -118.703125 C 114.976562 -120.785156 112.800781 -122.484375 108.875 -123.796875 C 104.957031 -125.117188 100.519531 -125.96875 95.5625 -126.34375 C 95.070312 -126.34375 94.828125 -126.585938 94.828125 -127.078125 L 94.828125 -128.8125 C 94.828125 -129.300781 95.039062 -129.546875 95.46875 -129.546875 L 148.484375 -129.546875 C 148.972656 -129.546875 149.21875 -129.300781 149.21875 -128.8125 L 149.21875 -127.078125 C 149.21875 -126.703125 148.632812 -126.515625 147.46875 -126.515625 C 138.40625 -126.515625 133.875 -122.195312 133.875 -113.5625 Z M 133.875 -16.625 "/></g></g></g><g fill="#ffffff" fill-opacity="1"><g transform="translate(678.584239, 622.982371)"><g><path d="M 23.15625 -114.84375 C 23.15625 -122.195312 18.925781 -125.875 10.46875 -125.875 C 9.125 -125.875 8.453125 -126.117188 8.453125 -126.609375 L 8.453125 -128.8125 C 8.453125 -129.300781 8.695312 -129.546875 9.1875 -129.546875 L 55.21875 -129.546875 C 55.707031 -129.546875 55.953125 -129.300781 55.953125 -128.8125 L 55.953125 -126.609375 C 55.953125 -126.117188 54.601562 -125.875 51.90625 -125.875 C 49.21875 -125.875 46.738281 -125.015625 44.46875 -123.296875 C 42.207031 -121.585938 41.078125 -118.066406 41.078125 -112.734375 L 41.078125 -14.703125 C 41.078125 -7.347656 45.332031 -3.671875 53.84375 -3.671875 C 55.125 -3.671875 55.765625 -3.425781 55.765625 -2.9375 L 55.765625 -0.734375 C 55.765625 -0.242188 55.519531 0 55.03125 0 L 9 0 C 8.507812 0 8.265625 -0.242188 8.265625 -0.734375 L 8.265625 -2.9375 C 8.265625 -3.425781 9.613281 -3.671875 12.3125 -3.671875 C 15.007812 -3.671875 17.488281 -4.53125 19.75 -6.25 C 22.019531 -7.96875 23.15625 -11.488281 23.15625 -16.8125 Z M 23.15625 -114.84375 "/></g></g></g><g fill="#ffffff" fill-opacity="1"><g transform="translate(749.019816, 622.982371)"><g><path d="M 117.796875 -7.90625 C 112.460938 -4.65625 106.640625 -2.109375 100.328125 -0.265625 C 94.023438 1.566406 88.421875 2.484375 83.515625 2.484375 C 73.472656 2.484375 63.890625 0.859375 54.765625 -2.390625 C 42.265625 -6.921875 32.21875 -13.628906 24.625 -22.515625 C 14.945312 -33.847656 10.109375 -48.210938 10.109375 -65.609375 C 10.109375 -78.160156 13.320312 -89.597656 19.75 -99.921875 C 26.1875 -110.242188 35.082031 -118.40625 46.4375 -124.40625 C 57.800781 -130.40625 70.019531 -133.40625 83.09375 -133.40625 C 96.175781 -133.40625 107.894531 -130.492188 118.25 -124.671875 C 128.601562 -118.859375 136.898438 -110.867188 143.140625 -100.703125 C 149.390625 -90.535156 152.515625 -79.523438 152.515625 -67.671875 C 152.515625 -55.816406 149.421875 -44.546875 143.234375 -33.859375 C 137.054688 -23.171875 128.578125 -14.519531 117.796875 -7.90625 Z M 29.40625 -68.546875 C 29.40625 -58.378906 31.65625 -48.285156 36.15625 -38.265625 C 40.65625 -28.253906 47.097656 -20.09375 55.484375 -13.78125 C 63.878906 -7.46875 73.59375 -4.3125 84.625 -4.3125 C 100.300781 -4.3125 112.519531 -10.316406 121.28125 -22.328125 C 129.1875 -33.171875 133.140625 -47.015625 133.140625 -63.859375 C 133.140625 -80.703125 128.300781 -95.21875 118.625 -107.40625 C 113.90625 -113.351562 108.128906 -118.117188 101.296875 -121.703125 C 94.460938 -125.285156 87.570312 -127.078125 80.625 -127.078125 C 73.675781 -127.078125 67.976562 -126.3125 63.53125 -124.78125 C 59.09375 -123.25 55.066406 -121.148438 51.453125 -118.484375 C 47.835938 -115.816406 44.648438 -112.644531 41.890625 -108.96875 C 39.140625 -105.289062 36.84375 -101.3125 35 -97.03125 C 31.269531 -88.207031 29.40625 -78.710938 29.40625 -68.546875 Z M 29.40625 -68.546875 "/></g></g></g><g fill="#ffffff" fill-opacity="1"><g transform="translate(917.860825, 622.982371)"><g><path d="M 6.25 0 C 5.757812 0 5.515625 -0.242188 5.515625 -0.734375 L 5.515625 -2.9375 C 5.515625 -3.425781 5.820312 -3.671875 6.4375 -3.671875 L 8.546875 -3.671875 C 11.910156 -3.671875 14.207031 -3.976562 15.4375 -4.59375 C 19.96875 -6.800781 22.234375 -12.863281 22.234375 -22.78125 L 22.234375 -118.25 C 22.234375 -122.351562 18.253906 -124.800781 10.296875 -125.59375 C 8.515625 -125.78125 7.269531 -125.875 6.5625 -125.875 C 5.863281 -125.875 5.515625 -126.117188 5.515625 -126.609375 L 5.515625 -128.8125 C 5.515625 -129.300781 5.757812 -129.546875 6.25 -129.546875 L 39.875 -129.546875 L 127.078125 -33.171875 C 127.378906 -32.859375 127.585938 -32.625 127.703125 -32.46875 C 127.828125 -32.320312 128.023438 -32.25 128.296875 -32.25 C 128.578125 -32.25 128.71875 -32.523438 128.71875 -33.078125 L 128.71875 -96.390625 C 128.71875 -108.578125 127.707031 -116.535156 125.6875 -120.265625 C 123.664062 -124.003906 119.59375 -125.875 113.46875 -125.875 L 108.78125 -125.875 C 108.289062 -125.875 108.046875 -126.117188 108.046875 -126.609375 L 108.046875 -128.8125 C 108.046875 -129.300781 108.289062 -129.546875 108.78125 -129.546875 L 156.5625 -129.546875 C 157.050781 -129.546875 157.296875 -129.300781 157.296875 -128.8125 L 157.296875 -126.609375 C 157.296875 -126.117188 156.390625 -125.875 154.578125 -125.875 C 152.773438 -125.875 149.804688 -124.832031 145.671875 -122.75 C 141.535156 -120.664062 139.46875 -118.09375 139.46875 -115.03125 L 139.46875 -2.671875 C 139.46875 -1.316406 139.285156 -0.347656 138.921875 0.234375 C 138.554688 0.816406 137.679688 1.109375 136.296875 1.109375 C 134.921875 1.109375 133.894531 0.832031 133.21875 0.28125 C 132.550781 -0.269531 131.757812 -1.066406 130.84375 -2.109375 L 36.109375 -107.140625 C 35.492188 -107.742188 34.941406 -108.046875 34.453125 -108.046875 C 34.148438 -108.046875 34 -107.742188 34 -107.140625 L 34 -15.4375 C 34 -9.863281 38.410156 -6.1875 47.234375 -4.40625 C 49.679688 -3.914062 51.546875 -3.671875 52.828125 -3.671875 C 54.117188 -3.671875 54.765625 -3.425781 54.765625 -2.9375 L 54.765625 -0.734375 C 54.765625 -0.242188 54.519531 0 54.03125 0 Z M 6.25 0 "/></g></g></g><g fill="#dedee1" fill-opacity="1"><g transform="translate(524.729215, 714.057296)"><g><path d="M 16.234375 0.507812 C 24.664062 0.507812 30.347656 -5.882812 30.191406 -14.898438 L 15.292969 -14.898438 L 15.292969 -11.605469 L 26.46875 -11.605469 C 25.761719 -6.429688 21.839844 -2.941406 16.3125 -2.941406 C 10.15625 -2.941406 5.804688 -7.371094 5.804688 -13.722656 C 5.804688 -20.078125 10.117188 -24.507812 16.273438 -24.507812 C 20.507812 -24.507812 23.878906 -22.429688 25.605469 -18.898438 L 29.371094 -18.898438 C 27.605469 -24.3125 22.429688 -27.957031 16.15625 -27.957031 C 8.117188 -27.957031 2.273438 -21.957031 2.273438 -13.722656 C 2.273438 -5.449219 8.15625 0.507812 16.234375 0.507812 Z M 16.234375 0.507812 "/></g></g></g><g fill="#dedee1" fill-opacity="1"><g transform="translate(557.075074, 714.057296)"><g><path d="M 12.46875 0.507812 C 17.058594 0.507812 20.820312 -1.960938 22.46875 -5.921875 L 18.742188 -5.921875 C 17.488281 -3.765625 15.175781 -2.589844 12.507812 -2.589844 C 8.625 -2.589844 5.882812 -5.019531 5.371094 -8.863281 L 22.976562 -8.863281 C 23.214844 -15.960938 19.015625 -20.859375 12.507812 -20.859375 C 6.351562 -20.859375 2.039062 -16.46875 2.039062 -10.195312 C 2.039062 -3.882812 6.3125 0.507812 12.46875 0.507812 Z M 5.410156 -11.761719 C 6 -15.371094 8.742188 -17.761719 12.507812 -17.761719 C 16.234375 -17.761719 18.976562 -15.488281 19.683594 -11.761719 Z M 5.410156 -11.761719 "/></g></g></g><g fill="#dedee1" fill-opacity="1"><g transform="translate(582.010794, 714.057296)"><g><path d="M 12.429688 0 L 15.488281 0 L 15.488281 -3.175781 L 12.585938 -3.175781 C 9.882812 -3.175781 8.625 -4.546875 8.625 -7.488281 L 8.625 -17.332031 L 15.214844 -17.332031 L 15.214844 -20.351562 L 8.625 -20.351562 L 8.625 -25.410156 L 6.078125 -25.410156 L 5.765625 -22.664062 C 5.527344 -20.820312 4.980469 -20.351562 3.097656 -20.351562 L 1.058594 -20.351562 L 1.058594 -17.332031 L 5.332031 -17.332031 L 5.332031 -7.332031 C 5.332031 -2.667969 7.921875 0 12.429688 0 Z M 12.429688 0 "/></g></g></g><g fill="#dedee1" fill-opacity="1"><g transform="translate(599.418749, 714.057296)"><g/></g></g><g fill="#dedee1" fill-opacity="1"><g transform="translate(609.142109, 714.057296)"><g><path d="M 12.429688 0.507812 C 15.722656 0.507812 18.546875 -0.863281 20.390625 -3.136719 L 20.78125 0 L 23.488281 0 L 23.488281 -29.015625 L 20.195312 -29.015625 L 20.195312 -17.488281 C 18.351562 -19.605469 15.605469 -20.859375 12.429688 -20.859375 C 6.390625 -20.859375 2.039062 -16.351562 2.039062 -10.195312 C 2.039062 -4 6.390625 0.507812 12.429688 0.507812 Z M 5.332031 -10.195312 C 5.332031 -14.585938 8.429688 -17.722656 12.820312 -17.722656 C 17.253906 -17.722656 20.3125 -14.585938 20.3125 -10.195312 C 20.3125 -5.765625 17.253906 -2.667969 12.820312 -2.667969 C 8.429688 -2.667969 5.332031 -5.765625 5.332031 -10.195312 Z M 5.332031 -10.195312 "/></g></g></g><g fill="#dedee1" fill-opacity="1"><g transform="translate(636.273425, 714.057296)"><g><path d="M 3.648438 0 L 6.941406 0 L 6.941406 -20.351562 L 3.648438 -20.351562 Z M 2.628906 -26.273438 C 2.628906 -24.820312 3.6875 -23.722656 5.292969 -23.722656 C 6.902344 -23.722656 7.921875 -24.820312 7.921875 -26.273438 C 7.921875 -27.761719 6.902344 -28.859375 5.292969 -28.859375 C 3.6875 -28.859375 2.628906 -27.761719 2.628906 -26.273438 Z M 2.628906 -26.273438 "/></g></g></g><g fill="#dedee1" fill-opacity="1"><g transform="translate(646.859339, 714.057296)"><g><path d="M 11.019531 0.507812 C 16.039062 0.507812 19.292969 -1.804688 19.292969 -5.332031 C 19.292969 -8.507812 16.625 -10.664062 11.488281 -11.683594 C 7.253906 -12.507812 5.804688 -13.332031 5.804688 -15.058594 C 5.804688 -16.859375 7.527344 -17.957031 10.46875 -17.957031 C 13.566406 -17.957031 15.410156 -16.742188 15.644531 -14.507812 L 18.898438 -14.507812 C 18.625 -18.507812 15.449219 -20.859375 10.429688 -20.859375 C 5.527344 -20.859375 2.546875 -18.703125 2.546875 -15.058594 C 2.546875 -11.84375 5.019531 -9.882812 10.273438 -9.019531 C 14.234375 -8.351562 16.039062 -7.253906 16.039062 -5.410156 C 16.039062 -3.566406 14.15625 -2.429688 11.058594 -2.429688 C 7.566406 -2.429688 5.488281 -3.921875 5.371094 -6.390625 L 2.117188 -6.390625 C 2.195312 -2.234375 5.6875 0.507812 11.019531 0.507812 Z M 11.019531 0.507812 "/></g></g></g><g fill="#dedee1" fill-opacity="1"><g transform="translate(668.266421, 714.057296)"><g><path d="M 12.507812 0.507812 C 17.605469 0.507812 21.566406 -2.546875 22.9375 -7.488281 L 19.449219 -7.488281 C 18.429688 -4.546875 15.800781 -2.667969 12.507812 -2.667969 C 8.3125 -2.667969 5.332031 -5.765625 5.332031 -10.195312 C 5.332031 -14.585938 8.3125 -17.722656 12.507812 -17.722656 C 15.605469 -17.722656 18.15625 -16.039062 19.371094 -13.214844 L 22.703125 -13.214844 C 21.683594 -17.800781 17.566406 -20.859375 12.507812 -20.859375 C 6.390625 -20.859375 2.039062 -16.390625 2.039062 -10.195312 C 2.039062 -3.960938 6.390625 0.507812 12.507812 0.507812 Z M 12.507812 0.507812 "/></g></g></g><g fill="#dedee1" fill-opacity="1"><g transform="translate(693.123735, 714.057296)"><g><path d="M 12.820312 0.507812 C 19.136719 0.507812 23.605469 -3.960938 23.605469 -10.195312 C 23.605469 -16.429688 19.136719 -20.859375 12.820312 -20.859375 C 6.507812 -20.859375 2.039062 -16.429688 2.039062 -10.195312 C 2.039062 -3.960938 6.507812 0.507812 12.820312 0.507812 Z M 5.332031 -10.195312 C 5.332031 -14.625 8.429688 -17.722656 12.820312 -17.722656 C 17.214844 -17.722656 20.3125 -14.625 20.3125 -10.195312 C 20.3125 -5.726562 17.214844 -2.667969 12.820312 -2.667969 C 8.429688 -2.667969 5.332031 -5.726562 5.332031 -10.195312 Z M 5.332031 -10.195312 "/></g></g></g><g fill="#dedee1" fill-opacity="1"><g transform="translate(718.765179, 714.057296)"><g><path d="M 11.761719 0.507812 C 14.46875 0.507812 17.097656 -0.589844 18.859375 -2.980469 L 19.214844 0 L 21.917969 0 L 21.917969 -20.351562 L 18.625 -20.351562 L 18.625 -10.078125 C 18.625 -5.644531 16 -2.667969 12.195312 -2.667969 C 8.703125 -2.667969 6.546875 -5.253906 6.546875 -9.332031 L 6.546875 -20.351562 L 3.253906 -20.351562 L 3.253906 -9.019531 C 3.253906 -3.214844 6.429688 0.507812 11.761719 0.507812 Z M 11.761719 0.507812 "/></g></g></g><g fill="#dedee1" fill-opacity="1"><g transform="translate(744.328216, 714.057296)"><g><path d="M 3.648438 0 L 6.941406 0 L 6.941406 -10.273438 C 6.941406 -14.742188 9.644531 -17.722656 13.449219 -17.722656 C 17.019531 -17.722656 19.214844 -15.136719 19.214844 -11.019531 L 19.214844 0 L 22.507812 0 L 22.507812 -11.332031 C 22.507812 -17.136719 19.292969 -20.859375 13.878906 -20.859375 C 11.136719 -20.859375 8.46875 -19.800781 6.707031 -17.371094 L 6.351562 -20.351562 L 3.648438 -20.351562 Z M 3.648438 0 "/></g></g></g><g fill="#dedee1" fill-opacity="1"><g transform="translate(770.087287, 714.057296)"><g><path d="M 12.429688 0 L 15.488281 0 L 15.488281 -3.175781 L 12.585938 -3.175781 C 9.882812 -3.175781 8.625 -4.546875 8.625 -7.488281 L 8.625 -17.332031 L 15.214844 -17.332031 L 15.214844 -20.351562 L 8.625 -20.351562 L 8.625 -25.410156 L 6.078125 -25.410156 L 5.765625 -22.664062 C 5.527344 -20.820312 4.980469 -20.351562 3.097656 -20.351562 L 1.058594 -20.351562 L 1.058594 -17.332031 L 5.332031 -17.332031 L 5.332031 -7.332031 C 5.332031 -2.667969 7.921875 0 12.429688 0 Z M 12.429688 0 "/></g></g></g><g fill="#dedee1" fill-opacity="1"><g transform="translate(524.729215, 778.542139)"><g><path d="M 11.761719 0.507812 C 14.46875 0.507812 17.097656 -0.589844 18.859375 -2.980469 L 19.214844 0 L 21.917969 0 L 21.917969 -20.351562 L 18.625 -20.351562 L 18.625 -10.078125 C 18.625 -5.644531 16 -2.667969 12.195312 -2.667969 C 8.703125 -2.667969 6.546875 -5.253906 6.546875 -9.332031 L 6.546875 -20.351562 L 3.253906 -20.351562 L 3.253906 -9.019531 C 3.253906 -3.214844 6.429688 0.507812 11.761719 0.507812 Z M 11.761719 0.507812 "/></g></g></g><g fill="#dedee1" fill-opacity="1"><g transform="translate(550.292253, 778.542139)"><g><path d="M 14.742188 0.507812 C 20.742188 0.507812 25.09375 -4 25.09375 -10.195312 C 25.09375 -16.351562 20.742188 -20.859375 14.742188 -20.859375 C 11.410156 -20.859375 8.585938 -19.488281 6.746094 -17.214844 L 6.351562 -20.351562 L 3.648438 -20.351562 L 3.648438 7.84375 L 6.941406 7.84375 L 6.941406 -2.902344 C 8.785156 -0.785156 11.527344 0.507812 14.742188 0.507812 Z M 6.824219 -10.195312 C 6.824219 -14.585938 9.921875 -17.722656 14.3125 -17.722656 C 18.742188 -17.722656 21.800781 -14.585938 21.800781 -10.195312 C 21.800781 -5.765625 18.742188 -2.667969 14.3125 -2.667969 C 9.921875 -2.667969 6.824219 -5.765625 6.824219 -10.195312 Z M 6.824219 -10.195312 "/></g></g></g><g fill="#dedee1" fill-opacity="1"><g transform="translate(577.423568, 778.542139)"><g/></g></g><g fill="#dedee1" fill-opacity="1"><g transform="translate(587.146929, 778.542139)"><g><path d="M 12.429688 0 L 15.488281 0 L 15.488281 -3.175781 L 12.585938 -3.175781 C 9.882812 -3.175781 8.625 -4.546875 8.625 -7.488281 L 8.625 -17.332031 L 15.214844 -17.332031 L 15.214844 -20.351562 L 8.625 -20.351562 L 8.625 -25.410156 L 6.078125 -25.410156 L 5.765625 -22.664062 C 5.527344 -20.820312 4.980469 -20.351562 3.097656 -20.351562 L 1.058594 -20.351562 L 1.058594 -17.332031 L 5.332031 -17.332031 L 5.332031 -7.332031 C 5.332031 -2.667969 7.921875 0 12.429688 0 Z M 12.429688 0 "/></g></g></g><g fill="#dedee1" fill-opacity="1"><g transform="translate(604.554884, 778.542139)"><g><path d="M 12.820312 0.507812 C 19.136719 0.507812 23.605469 -3.960938 23.605469 -10.195312 C 23.605469 -16.429688 19.136719 -20.859375 12.820312 -20.859375 C 6.507812 -20.859375 2.039062 -16.429688 2.039062 -10.195312 C 2.039062 -3.960938 6.507812 0.507812 12.820312 0.507812 Z M 5.332031 -10.195312 C 5.332031 -14.625 8.429688 -17.722656 12.820312 -17.722656 C 17.214844 -17.722656 20.3125 -14.625 20.3125 -10.195312 C 20.3125 -5.726562 17.214844 -2.667969 12.820312 -2.667969 C 8.429688 -2.667969 5.332031 -5.726562 5.332031 -10.195312 Z M 5.332031 -10.195312 "/></g></g></g><g fill="#dedee1" fill-opacity="1"><g transform="translate(630.206479, 778.542139)"><g/></g></g><g fill="#dedee1" fill-opacity="1"><g transform="translate(639.92984, 778.542139)"><g/></g></g><g fill="#dedee1" fill-opacity="1"><g transform="translate(649.668598, 778.542139)"><g><path d="M 11.882812 0.507812 C 17.527344 0.507812 21.292969 -3.019531 21.292969 -8.234375 C 21.292969 -13.410156 17.527344 -16.9375 11.921875 -16.9375 L 6.902344 -16.9375 L 7.488281 -24.234375 L 20.035156 -24.234375 L 20.035156 -27.449219 L 4.351562 -27.449219 L 3.292969 -13.761719 L 11.921875 -13.761719 C 15.488281 -13.761719 17.839844 -11.644531 17.839844 -8.3125 C 17.839844 -5.019531 15.527344 -2.824219 11.921875 -2.824219 C 8.507812 -2.824219 6.15625 -4.785156 5.960938 -7.921875 L 2.589844 -7.921875 C 2.824219 -2.785156 6.46875 0.507812 11.882812 0.507812 Z M 11.882812 0.507812 "/></g></g></g><g fill="#dedee1" fill-opacity="1"><g transform="translate(673.192869, 778.542139)"><g><path d="M 13.722656 0.507812 C 20.585938 0.507812 24.78125 -4.941406 24.78125 -13.722656 C 24.78125 -22.507812 20.585938 -27.957031 13.722656 -27.957031 C 6.902344 -27.957031 2.628906 -22.507812 2.628906 -13.722656 C 2.628906 -4.941406 6.902344 0.507812 13.722656 0.507812 Z M 6.039062 -13.722656 C 6.039062 -20.46875 8.980469 -24.625 13.722656 -24.625 C 18.46875 -24.625 21.371094 -20.46875 21.371094 -13.722656 C 21.371094 -6.980469 18.46875 -2.824219 13.722656 -2.824219 C 8.980469 -2.824219 6.039062 -6.980469 6.039062 -13.722656 Z M 6.039062 -13.722656 "/></g></g></g><g fill="#dedee1" fill-opacity="1"><g transform="translate(700.598641, 778.542139)"><g><path d="M 6.585938 0 L 10.195312 0 L 26.859375 -27.449219 L 23.253906 -27.449219 Z M 1.921875 -22.035156 C 1.921875 -18.664062 4.46875 -16.15625 7.960938 -16.15625 C 11.449219 -16.15625 14 -18.664062 14 -22.035156 C 14 -25.410156 11.449219 -27.917969 7.960938 -27.917969 C 4.46875 -27.917969 1.921875 -25.410156 1.921875 -22.035156 Z M 4.902344 -22.035156 C 4.902344 -23.800781 6.195312 -25.09375 7.960938 -25.09375 C 9.761719 -25.09375 11.019531 -23.800781 11.019531 -22.035156 C 11.019531 -20.273438 9.761719 -18.976562 7.960938 -18.976562 C 6.195312 -18.976562 4.902344 -20.273438 4.902344 -22.035156 Z M 19.449219 -5.410156 C 19.449219 -2.039062 21.996094 0.46875 25.488281 0.46875 C 28.976562 0.46875 31.527344 -2.039062 31.527344 -5.410156 C 31.527344 -8.785156 28.976562 -11.292969 25.488281 -11.292969 C 21.996094 -11.292969 19.449219 -8.785156 19.449219 -5.410156 Z M 22.429688 -5.410156 C 22.429688 -7.175781 23.722656 -8.46875 25.488281 -8.46875 C 27.292969 -8.46875 28.546875 -7.175781 28.546875 -5.410156 C 28.546875 -3.648438 27.292969 -2.351562 25.488281 -2.351562 C 23.722656 -2.351562 22.429688 -3.648438 22.429688 -5.410156 Z M 22.429688 -5.410156 "/></g></g></g><g clip-path="url(#69e6a7bc13)"><path fill="#f36f24" d="M 1043.894531 1671.152344 L 1003.152344 1709.183594 L 1028.730469 1709.183594 L 1069.476562 1671.152344 Z M 1001.566406 1671.152344 L 960.824219 1709.183594 L 986.402344 1709.183594 L 1027.144531 1671.152344 Z M 959.464844 1671.152344 L 918.722656 1709.183594 L 944.300781 1709.183594 L 985.042969 1671.152344 Z M 917.136719 1671.152344 L 876.390625 1709.183594 L 901.96875 1709.183594 L 942.714844 1671.152344 Z M 875.035156 1671.152344 L 834.289062 1709.183594 L 859.867188 1709.183594 L 900.613281 1671.152344 Z M 832.707031 1671.152344 L 791.960938 1709.183594 L 817.539062 1709.183594 L 858.285156 1671.152344 Z M 790.375 1671.152344 L 749.632812 1709.183594 L 775.210938 1709.183594 L 815.953125 1671.152344 Z M 748.273438 1671.152344 L 707.53125 1709.183594 L 733.109375 1709.183594 L 773.851562 1671.152344 Z M 705.945312 1671.152344 L 665.199219 1709.183594 L 690.78125 1709.183594 L 731.523438 1671.152344 Z M 663.617188 1671.152344 L 622.871094 1709.183594 L 648.449219 1709.183594 L 689.195312 1671.152344 Z M 1086.226562 1671.152344 L 1045.480469 1709.183594 L 1071.058594 1709.183594 L 1111.804688 1671.152344 Z M 1128.328125 1671.152344 L 1087.582031 1709.183594 L 1113.160156 1709.183594 L 1153.90625 1671.152344 Z M 1170.65625 1671.152344 L 1129.910156 1709.183594 L 1155.492188 1709.183594 L 1196.234375 1671.152344 Z M 1212.984375 1671.152344 L 1172.242188 1709.183594 L 1197.820312 1709.183594 L 1238.5625 1671.152344 Z M 1212.984375 1671.152344 " fill-opacity="1" fill-rule="nonzero"/></g><g clip-path="url(#f3261374b6)"><path fill="#f36f24" d="M 524.730469 1084.699219 L 1015.449219 1084.699219 L 1015.449219 1235.6875 L 524.730469 1235.6875 Z M 524.730469 1084.699219 " fill-opacity="1" fill-rule="nonzero"/></g><g clip-path="url(#40d619bcb9)"><path fill="#ffffff" d="M 524.730469 1084.699219 L 1015.449219 1084.699219 L 1015.449219 1235.6875 L 524.730469 1235.6875 Z M 524.730469 1084.699219 " fill-opacity="1" fill-rule="nonzero"/></g><g fill="#1e1b19" fill-opacity="1"><g transform="translate(555.546646, 1176.377057)"><g><path d="M 23.84375 -49.78125 C 31.195312 -49.78125 37.664062 -47.953125 43.25 -44.296875 L 38.53125 -34.53125 C 35.957031 -36.03125 33.191406 -37.257812 30.234375 -38.21875 C 27.285156 -39.175781 24.800781 -39.65625 22.78125 -39.65625 C 19.175781 -39.65625 17.375 -38.460938 17.375 -36.078125 C 17.375 -34.523438 18.265625 -33.28125 20.046875 -32.34375 C 21.828125 -31.40625 23.992188 -30.597656 26.546875 -29.921875 C 29.097656 -29.242188 31.648438 -28.421875 34.203125 -27.453125 C 36.765625 -26.492188 38.9375 -24.9375 40.71875 -22.78125 C 42.5 -20.625 43.390625 -17.90625 43.390625 -14.625 C 43.390625 -9.894531 41.535156 -6.203125 37.828125 -3.546875 C 34.128906 -0.898438 29.421875 0.421875 23.703125 0.421875 C 19.617188 0.421875 15.582031 -0.28125 11.59375 -1.6875 C 7.613281 -3.09375 4.148438 -5.015625 1.203125 -7.453125 L 6.046875 -17.09375 C 8.535156 -14.9375 11.46875 -13.164062 14.84375 -11.78125 C 18.21875 -10.394531 21.21875 -9.703125 23.84375 -9.703125 C 25.851562 -9.703125 27.421875 -10.066406 28.546875 -10.796875 C 29.671875 -11.523438 30.234375 -12.59375 30.234375 -14 C 30.234375 -15.351562 29.585938 -16.488281 28.296875 -17.40625 C 27.015625 -18.320312 25.410156 -19 23.484375 -19.4375 C 21.566406 -19.882812 19.484375 -20.484375 17.234375 -21.234375 C 14.984375 -21.984375 12.894531 -22.800781 10.96875 -23.6875 C 9.050781 -24.582031 7.445312 -26.003906 6.15625 -27.953125 C 4.863281 -29.898438 4.21875 -32.234375 4.21875 -34.953125 C 4.21875 -39.453125 6.007812 -43.046875 9.59375 -45.734375 C 13.1875 -48.429688 17.9375 -49.78125 23.84375 -49.78125 Z M 23.84375 -49.78125 "/></g></g></g><g fill="#1e1b19" fill-opacity="1"><g transform="translate(600.821881, 1176.377057)"><g><path d="M 50.34375 0 L 37.828125 0 L 37.828125 -19.125 L 17.4375 -19.125 L 17.4375 0 L 4.921875 0 L 4.921875 -49.21875 L 17.4375 -49.21875 L 17.4375 -28.96875 L 37.828125 -28.96875 L 37.828125 -49.21875 L 50.34375 -49.21875 Z M 50.34375 0 "/></g></g></g><g fill="#1e1b19" fill-opacity="1"><g transform="translate(656.080144, 1176.377057)"><g><path d="M 28.265625 -49.640625 C 35.910156 -49.640625 42.265625 -47.257812 47.328125 -42.5 C 52.390625 -37.75 54.921875 -31.8125 54.921875 -24.6875 C 54.921875 -17.507812 52.375 -11.503906 47.28125 -6.671875 C 42.195312 -1.847656 35.859375 0.5625 28.265625 0.5625 C 20.671875 0.5625 14.34375 -1.835938 9.28125 -6.640625 C 4.21875 -11.453125 1.6875 -17.46875 1.6875 -24.6875 C 1.6875 -31.851562 4.21875 -37.800781 9.28125 -42.53125 C 14.34375 -47.269531 20.671875 -49.640625 28.265625 -49.640625 Z M 28.40625 -39.171875 C 24.5625 -39.171875 21.28125 -37.773438 18.5625 -34.984375 C 15.84375 -32.191406 14.484375 -28.734375 14.484375 -24.609375 C 14.484375 -20.484375 15.851562 -17.003906 18.59375 -14.171875 C 21.34375 -11.335938 24.613281 -9.921875 28.40625 -9.921875 C 32.207031 -9.921875 35.429688 -11.335938 38.078125 -14.171875 C 40.722656 -17.003906 42.046875 -20.484375 42.046875 -24.609375 C 42.046875 -28.734375 40.722656 -32.191406 38.078125 -34.984375 C 35.429688 -37.773438 32.207031 -39.171875 28.40625 -39.171875 Z M 28.40625 -39.171875 "/></g></g></g><g fill="#1e1b19" fill-opacity="1"><g transform="translate(712.67418, 1176.377057)"><g><path d="M 4.921875 -49.21875 L 26.375 -49.21875 C 32.65625 -49.21875 37.53125 -47.726562 41 -44.75 C 44.46875 -41.78125 46.203125 -37.550781 46.203125 -32.0625 C 46.203125 -26.300781 44.46875 -21.828125 41 -18.640625 C 37.53125 -15.453125 32.65625 -13.859375 26.375 -13.859375 L 17.4375 -13.859375 L 17.4375 0 L 4.921875 0 Z M 17.4375 -39.375 L 17.4375 -23.703125 L 25.734375 -23.703125 C 28.503906 -23.703125 30.640625 -24.378906 32.140625 -25.734375 C 33.640625 -27.097656 34.390625 -29.066406 34.390625 -31.640625 C 34.390625 -34.171875 33.640625 -36.09375 32.140625 -37.40625 C 30.640625 -38.71875 28.503906 -39.375 25.734375 -39.375 Z M 17.4375 -39.375 "/></g></g></g><g fill="#1e1b19" fill-opacity="1"><g transform="translate(760.480337, 1176.377057)"><g/></g></g><g fill="#1e1b19" fill-opacity="1"><g transform="translate(776.790684, 1176.377057)"><g><path d="M 50.34375 0 L 39.3125 0 L 16.671875 -30.3125 L 16.671875 0 L 4.921875 0 L 4.921875 -49.21875 L 15.96875 -49.21875 L 38.671875 -18.84375 L 38.671875 -49.21875 L 50.34375 -49.21875 Z M 50.34375 0 "/></g></g></g><g fill="#1e1b19" fill-opacity="1"><g transform="translate(832.048947, 1176.377057)"><g><path d="M 28.265625 -49.640625 C 35.910156 -49.640625 42.265625 -47.257812 47.328125 -42.5 C 52.390625 -37.75 54.921875 -31.8125 54.921875 -24.6875 C 54.921875 -17.507812 52.375 -11.503906 47.28125 -6.671875 C 42.195312 -1.847656 35.859375 0.5625 28.265625 0.5625 C 20.671875 0.5625 14.34375 -1.835938 9.28125 -6.640625 C 4.21875 -11.453125 1.6875 -17.46875 1.6875 -24.6875 C 1.6875 -31.851562 4.21875 -37.800781 9.28125 -42.53125 C 14.34375 -47.269531 20.671875 -49.640625 28.265625 -49.640625 Z M 28.40625 -39.171875 C 24.5625 -39.171875 21.28125 -37.773438 18.5625 -34.984375 C 15.84375 -32.191406 14.484375 -28.734375 14.484375 -24.609375 C 14.484375 -20.484375 15.851562 -17.003906 18.59375 -14.171875 C 21.34375 -11.335938 24.613281 -9.921875 28.40625 -9.921875 C 32.207031 -9.921875 35.429688 -11.335938 38.078125 -14.171875 C 40.722656 -17.003906 42.046875 -20.484375 42.046875 -24.609375 C 42.046875 -28.734375 40.722656 -32.191406 38.078125 -34.984375 C 35.429688 -37.773438 32.207031 -39.171875 28.40625 -39.171875 Z M 28.40625 -39.171875 "/></g></g></g><g fill="#1e1b19" fill-opacity="1"><g transform="translate(888.642983, 1176.377057)"><g><path d="M 60.265625 0 L 47.390625 0 L 38.25 -34.03125 L 28.96875 0 L 16.03125 0 L -0.078125 -49.21875 L 13.296875 -49.21875 L 22.921875 -13.015625 L 32.34375 -49.21875 L 44.578125 -49.21875 L 54.21875 -13.015625 L 63.703125 -49.21875 L 76.5 -49.21875 Z M 60.265625 0 "/></g></g></g><g clip-path="url(#f5e95e63e5)"><path fill="#f36f24" d="M 97.476562 1307.589844 L 70.136719 1307.589844 L 97.476562 1354.675781 L 70.136719 1401.757812 L 97.476562 1401.757812 L 124.816406 1354.675781 Z M 97.476562 1307.589844 " fill-opacity="1" fill-rule="nonzero"/></g><g clip-path="url(#e3b8661e45)"><path fill="#f36f24" d="M 159.554688 1307.589844 L 132.214844 1307.589844 L 159.554688 1354.675781 L 132.214844 1401.757812 L 159.554688 1401.757812 L 186.894531 1354.675781 Z M 159.554688 1307.589844 " fill-opacity="1" fill-rule="nonzero"/></g></svg>